<?xml version="1.0" encoding="UTF-8"?>
<svg id="Capa_2" data-name="Capa 2" xmlns="http://www.w3.org/2000/svg" viewBox="0 0 371.37 332.44">
  <defs>
    <style>
      .cls-1 {
        fill: none;
        stroke: #000;
        stroke-miterlimit: 10;
        stroke-width: 15.99px;
      }
    </style>
  </defs>
  <g id="Capa_1-2" data-name="Capa 1">
    <g>
      <g>
        <path d="M19.61,146.16c18.81,24.55,48.14,39.31,79.59,39.31,14.58,0,28.94-3.17,42.07-9.24l22.03,22.04H44.58c-17.67,0-32.04-14.38-32.04-32.04,0-7.39,2.57-14.45,7.07-20.06M22.38,127.55c-13.37,7.7-22.38,22.13-22.38,38.67,0,24.62,19.96,44.58,44.58,44.58h148.98l-49.94-49.94c-13.03,7.67-28.21,12.07-44.42,12.07-33.09,0-61.89-18.33-76.82-45.38h0Z"/>
        <path d="M326.79,134.17c17.67,0,32.04,14.38,32.04,32.04s-14.38,32.04-32.04,32.04h-84.39l-58.85-58.86c1.1-1.71,2.15-3.45,3.14-5.22h140.1M326.79,121.64h-147.78c-3.14,6.88-7.15,13.28-11.88,19.07l70.08,70.1h89.59c24.62,0,44.58-19.96,44.58-44.58s-19.96-44.58-44.58-44.58h0Z"/>
      </g>
      <path d="M185.68,12.54c28.62,0,56.54,7.92,80.75,22.9,23.55,14.58,42.77,35.24,55.57,59.76.1.19.34.65-.04,1.28-.38.63-.89.63-1.11.63h-122.12c.47-3.93.7-7.89.7-11.87,0-18.95-5.32-37.4-15.38-53.36-4.25-6.75-9.27-12.94-14.94-18.45,5.48-.59,11.01-.88,16.56-.88M185.68,0c-16.4,0-32.25,2.38-47.22,6.81,28.72,14.41,48.43,44.11,48.43,78.43,0,8.47-1.21,16.66-3.45,24.41h137.41c10.39,0,17.08-11.03,12.27-20.25C305.38,36.27,249.77,0,185.68,0h0Z"/>
      <circle class="cls-1" cx="99.2" cy="85.24" r="65.35"/>
      <path d="M320.85,235.33c.22,0,.73,0,1.11.63.38.63.14,1.09.04,1.28-12.8,24.52-32.02,45.19-55.57,59.76-24.21,14.98-52.13,22.9-80.75,22.9s-56.55-7.92-80.75-22.9c-23.55-14.58-42.77-35.24-55.57-59.77-.1-.19-.34-.65.04-1.28.38-.63.89-.63,1.11-.63h149.84l39.52,39.53.34.34.37.31c5.46,4.68,11.9,7.15,18.62,7.15,10.86,0,20.87-6.51,25.5-16.59,4.62-10.05,2.89-21.28-4.62-30.06l-.31-.37-.32-.32h41.4M320.85,222.79h-71.66l21.38,21.38c9.91,11.57.39,25.96-11.36,25.96-3.44,0-7.07-1.23-10.46-4.14l-43.2-43.2H50.51c-10.39,0-17.08,11.03-12.27,20.25,27.74,53.13,83.35,89.4,147.44,89.4s119.7-36.27,147.44-89.4c4.81-9.21-1.87-20.25-12.27-20.25h0Z"/>
    </g>
  </g>
</svg>