<?xml version="1.0" encoding="UTF-8"?>
<svg id="Capa_2" data-name="Capa 2" xmlns="http://www.w3.org/2000/svg" viewBox="0 0 452.13 457.5">
  <defs>
    <style>
      .cls-1 {
        fill: none;
        stroke: #000;
        stroke-miterlimit: 10;
        stroke-width: 18.51px;
      }
    </style>
  </defs>
  <g id="Capa_1-2" data-name="Capa 1">
    <g>
      <g>
        <g>
          <path d="M22.7,241.86c21.77,28.42,55.73,45.5,92.14,45.5,16.88,0,33.51-3.67,48.7-10.7l25.5,25.51H51.61c-20.45,0-37.09-16.64-37.09-37.09,0-8.55,2.98-16.72,8.18-23.22M25.91,220.32c-15.48,8.91-25.91,25.62-25.91,44.76,0,28.5,23.11,51.61,51.61,51.61h172.46l-57.81-57.81c-15.08,8.88-32.66,13.98-51.43,13.98-38.3,0-71.64-21.21-88.93-52.53h0Z"/>
          <path d="M378.29,227.99c20.45,0,37.09,16.64,37.09,37.09s-16.64,37.09-37.09,37.09h-97.69l-68.13-68.14c1.27-1.98,2.49-4,3.64-6.05h162.18M378.29,213.47h-171.07c-3.64,7.96-8.28,15.37-13.76,22.07l81.13,81.14h103.71c28.5,0,51.61-23.1,51.61-51.61s-23.11-51.61-51.61-51.61h0Z"/>
        </g>
        <path d="M214.95,87.18c33.13,0,65.46,9.17,93.48,26.51,27.27,16.87,49.51,40.8,64.33,69.18.12.23.39.75-.05,1.48-.44.73-1.03.73-1.29.73h-141.37c.54-4.55.81-9.14.81-13.74,0-21.93-6.16-43.3-17.8-61.78-4.92-7.81-10.74-14.98-17.29-21.36,6.35-.68,12.75-1.02,19.18-1.02M214.95,72.67c-18.99,0-37.33,2.76-54.66,7.88,33.24,16.67,56.06,51.06,56.06,90.79,0,9.8-1.39,19.28-3.99,28.25h159.06c12.03,0,19.77-12.77,14.2-23.44-32.11-61.5-96.49-103.49-170.67-103.49h0Z"/>
        <circle class="cls-1" cx="114.83" cy="171.34" r="75.65"/>
        <path d="M371.42,345.08c.25,0,.85,0,1.29.73.44.73.17,1.26.05,1.48-14.82,28.39-37.07,52.31-64.33,69.18-28.02,17.34-60.34,26.51-93.48,26.51s-65.46-9.17-93.48-26.51c-27.27-16.88-49.51-40.8-64.33-69.18-.12-.23-.39-.75.05-1.48.44-.73,1.03-.73,1.29-.73h173.46l45.75,45.76.4.4.43.36c6.32,5.42,13.78,8.28,21.55,8.28,12.57,0,24.16-7.54,29.52-19.2,5.35-11.63,3.35-24.64-5.35-34.8l-.36-.43-.37-.37h47.93M371.42,330.57h-82.96l24.75,24.75c11.47,13.39.45,30.05-13.15,30.05-3.98,0-8.19-1.43-12.11-4.79l-50.01-50.01H58.47c-12.03,0-19.77,12.77-14.2,23.44,32.11,61.5,96.49,103.49,170.67,103.49s138.56-41.98,170.67-103.49c5.57-10.67-2.17-23.44-14.2-23.44h0Z"/>
      </g>
      <g>
        <path d="M168.46,40.78l-3.6-14.71c-1.05-4.28-2.81-5.52-5.62-4.83-3.1.76-4.07,2.98-3.19,6.57l3.7,15.11-8.17,2-3.69-15.06c-.87-3.54-2.63-5.2-5.44-4.51-3.2.78-4.12,3.2-3.19,6.99l3.6,14.72-8.17,2-6.69-27.32,7.63-1.87.71,2.9.1-.02c.8-2.91,3.1-4.83,6.59-5.68,3.54-.87,6.59.27,9.07,2.94,1.21-3.58,3.73-6.08,7.47-6.99,6.1-1.5,11.05,1.26,12.92,8.89l4.13,16.88-8.17,2Z"/>
        <path d="M187.21,26.89c.67,3.15,3.49,5.1,6.92,4.87,2.28-.15,3.69-1.11,4.93-2.97l8.59-.57c-2.28,6.29-7.14,10.22-13.06,10.61-8.09.54-15.29-5.54-15.84-13.88-.53-8.09,5.47-15.49,13.71-16.04,8.39-.55,15.25,5.64,15.82,14.34.05.81.05,1.47-.05,2.24l-21.03,1.39ZM199.68,20.38c-.85-2.84-3.5-4.59-6.74-4.38-3.03.2-5.54,2.2-6,5.22l12.74-.84Z"/>
        <path d="M214.58,37.46l.9-21.71-4.15-.17.26-6.38,4.15.17.39-9.36,8.4.35-.39,9.36,4.05.17-.26,6.38-4.05-.17-.9,21.71-8.4-.35Z"/>
        <path d="M249.87,40.99l.46-3.01h-.1c-1.58,2.26-5.11,3.25-8.77,2.7-8.21-1.26-12.93-8.59-11.65-17,1.26-8.21,8.22-13.91,16.19-12.7,3.4.52,6.35,2.35,7.56,5.15h.1s.45-2.94.45-2.94l8.31,1.27-4.25,27.79-8.31-1.27ZM252,27.07c.6-3.91-2.08-7.54-5.98-8.14-3.81-.58-7.29,2.11-7.91,6.12-.59,3.85,1.98,7.48,5.84,8.07,3.91.6,7.44-2.04,8.05-6.05Z"/>
        <path d="M265.35,44.44l6.33-23.69-4.16-1.11.82-3.08,4.16,1.11c1.96-7.34,6.13-9.01,12.97-7.34l-.85,3.18-.1-.03c-4.75-1.27-7.28.16-8.55,4.9l-.05.2,6.85,1.83-.82,3.08-6.85-1.83-6.33,23.7-3.43-.92Z"/>
        <path d="M281.77,34.46c2.9-7.62,11.41-11.43,18.74-8.63,7.53,2.87,11.17,11.52,8.4,18.77-2.87,7.53-11.48,11.18-18.76,8.4-7.34-2.8-11.13-11.34-8.38-18.54ZM305.65,43.19c2.15-5.63-.56-12.19-6.28-14.38-5.63-2.15-12.04,1-14.27,6.87-2.17,5.68.6,12.21,6.23,14.36,5.82,2.22,12.07-.93,14.32-6.84Z"/>
        <path d="M313.3,46.85c3.94-7.14,12.89-9.73,19.76-5.94,7.05,3.89,9.45,12.96,5.71,19.75-3.89,7.05-12.92,9.48-19.75,5.71-6.88-3.79-9.44-12.79-5.72-19.53ZM335.74,58.82c2.91-5.28,1.15-12.15-4.22-15.11-5.28-2.91-12.06-.69-15.09,4.81-2.94,5.32-1.1,12.18,4.18,15.09,5.46,3.01,12.08.76,15.13-4.79Z"/>
        <path d="M355.07,89.86l2.93-3.88-.08-.06c-4.11,1.41-8.5.5-11.94-2.1-6.63-5.01-8.1-13.99-3.09-20.62,5.01-6.63,14.15-7.47,20.62-2.58,3.44,2.6,5.49,6.69,5.31,10.87l.08.06,8.76-11.6,2.83,2.14-22.6,29.91-2.83-2.14ZM363.56,78.95c3.73-4.93,3.03-12-2.02-15.81-5.17-3.91-11.98-2.89-15.92,2.33-3.82,5.05-2.98,11.84,2.28,15.82,4.89,3.7,11.88,2.69,15.66-2.33Z"/>
        <path d="M387.09,109.42c-5.99,1.94-11.43.99-15.96-3.59-5.81-5.87-6.13-14.89.03-20.99,5.4-5.34,14.85-5.3,20.63.53,4.28,4.32,5.68,10.56,3.25,16.17l-2.75-2.77c1.27-4.18.11-8.24-2.71-11.08-4.49-4.54-11.62-4.6-16.08-.18-4.54,4.49-4.57,11.58-.04,16.16,2.96,2.99,6.86,4.19,10.88,2.99l2.74,2.77Z"/>
        <path d="M383.87,118.8l21.58-17.39,2.23,2.76-3.12,2.51.06.08c3.01-.87,5.57-.2,8.56,3.12l-2.92,2.35-.03-.04c-3.61-3.66-7.93-3.7-11.4-.9l-12.74,10.27-2.23-2.76Z"/>
        <path d="M406.21,150.25l4.08-2.64-.05-.08c-4.13-.05-8.05-2.28-10.5-6.07-4.51-6.98-2.81-15.92,4.17-20.43,6.98-4.51,15.86-2.16,20.25,4.65,2.5,3.87,2.9,8.32,1.18,12.09l.06.09,4.08-2.64,1.92,2.98-23.28,15.04-1.92-2.98ZM417.93,142.92c5.19-3.35,6.93-10.27,3.53-15.55-3.46-5.36-10.22-6.85-15.75-3.28-5.36,3.47-6.83,10.15-3.29,15.64,3.35,5.19,10.28,6.57,15.51,3.19Z"/>
        <path d="M416.69,171.11l22.19-10.44-3.84-8.16-22.19,10.44-1.51-3.21,22.19-10.44-1.83-3.9,2.89-1.36,1.83,3.9.37-.17c7.11-3.34,11.13.08,13.61,5.36l-2.98,1.4c-1.9-4.03-4.44-5.75-8.93-3.64l-.55.26,3.84,8.16,8.85-4.16,1.51,3.21-8.85,4.17,2.83,6-2.89,1.36-2.83-6-22.19,10.44-1.51-3.21Z"/>
      </g>
    </g>
  </g>
</svg>