<?xml version="1.0" encoding="UTF-8"?>
<svg version="1.1" xmlns="http://www.w3.org/2000/svg" width="512" height="512">
<path d="M0 0 C5.213585 2.69124582 7.99406933 6.86502049 9.80859375 12.30859375 C10.60100976 18.89473994 9.61340899 23.86601027 5.80859375 29.30859375 C2.92968286 32.7622958 -0.07973509 36.06394519 -3.19140625 39.30859375 C1.72409999 45.23566652 7.03219245 50.66763039 12.48583984 56.09936523 C13.45244486 57.06568765 14.41882869 58.03223136 15.38500977 58.99897766 C17.98977588 61.60402892 20.59759825 64.20600058 23.20600843 66.80740237 C25.93842713 69.53354014 28.66798574 72.26253861 31.39785767 74.9912262 C36.55929989 80.14956902 41.72328435 85.30535894 46.88820231 90.46022135 C52.77171455 96.33252912 58.65236383 102.20770038 64.53278232 108.08310592 C76.62155171 120.16144245 88.71388565 132.23620404 100.80859375 144.30859375 C102.09152193 143.34758824 103.37428679 142.38636471 104.65698242 141.42504883 C105.37133957 140.8897908 106.08569672 140.35453278 106.82170105 139.80305481 C108.29881325 138.69203021 109.76857375 137.57121781 111.234375 136.4453125 C111.85699219 135.96707031 112.47960937 135.48882812 113.12109375 134.99609375 C113.75660156 134.50496094 114.39210938 134.01382813 115.046875 133.5078125 C119.24898228 130.64739801 123.92750511 130.73992323 128.80859375 131.30859375 C134.1189577 133.0228165 137.76005546 135.55287402 140.80859375 140.30859375 C142.67429016 145.90568298 142.99984515 152.21817515 140.85546875 157.78125 C134.23846569 168.56240154 122.44607759 175.07282736 111.80859375 181.30859375 C110.14113017 182.30726435 108.47417484 183.30678667 106.80859375 184.30859375 C106.99969727 184.9005957 107.19080078 185.49259766 107.38769531 186.10253906 C110.72668962 196.52936244 113.97030883 206.93828953 116.12109375 217.68359375 C116.26772461 218.40450195 116.41435547 219.12541016 116.56542969 219.86816406 C119.47060761 235.22023478 120.18187318 250.40692043 120.12109375 265.99609375 C120.11835953 267.45284515 120.11835953 267.45284515 120.11557007 268.93902588 C120.07130803 282.94111405 119.65731145 296.5572365 116.80859375 310.30859375 C116.64762207 311.15760254 116.48665039 312.00661133 116.32080078 312.88134766 C107.85924554 357.25371084 87.56018807 398.2521462 56.80859375 431.30859375 C55.61638162 432.67951005 54.42867376 434.05435999 53.24609375 435.43359375 C47.22907098 442.30429023 40.77690907 448.31674375 33.6484375 454.02734375 C31.80955532 455.50452008 29.98780552 457.00338915 28.1875 458.52734375 C15.4987353 469.23643491 1.4782021 477.61454661 -13.19140625 485.30859375 C-14.26455078 485.87876221 -14.26455078 485.87876221 -15.359375 486.46044922 C-37.6427302 498.1551518 -62.36792979 505.53234171 -87.19140625 509.30859375 C-88.35728271 509.49115723 -89.52315918 509.6737207 -90.72436523 509.86181641 C-101.98489738 511.460802 -113.14159941 511.70664696 -124.50390625 511.68359375 C-125.46918243 511.68338226 -126.43445862 511.68317078 -127.4289856 511.68295288 C-143.35074803 511.64824703 -158.56671058 510.5701511 -174.19140625 507.30859375 C-175.09681152 507.13199219 -176.0022168 506.95539063 -176.93505859 506.7734375 C-214.34334842 499.3969626 -251.08229627 481.94389877 -280.19140625 457.30859375 C-280.80177734 456.79828613 -281.41214844 456.28797852 -282.04101562 455.76220703 C-294.58388797 445.24908085 -306.11711344 434.25659084 -316.19140625 421.30859375 C-316.93608154 420.37055908 -316.93608154 420.37055908 -317.69580078 419.41357422 C-325.3367417 409.78833123 -332.279147 400.08696884 -338.19140625 389.30859375 C-338.66465332 388.44959473 -339.13790039 387.5905957 -339.62548828 386.70556641 C-341.20717151 383.8117537 -342.76569003 380.90660946 -344.31640625 377.99609375 C-344.79537354 377.10841309 -345.27434082 376.22073242 -345.76782227 375.30615234 C-353.54434621 360.44281833 -358.39696421 345.15993363 -361.87890625 328.80859375 C-362.0680661 327.93575745 -362.25722595 327.06292114 -362.45211792 326.16363525 C-363.5760657 320.97255906 -364.66705549 315.77558789 -365.7286377 310.57141113 C-366.13913622 308.56418056 -366.55865814 306.55880004 -366.97949219 304.55371094 C-372.4022046 278.0855225 -372.46874878 248.82108219 -367.19140625 222.30859375 C-367.03043457 221.45088379 -366.86946289 220.59317383 -366.70361328 219.70947266 C-358.26032168 175.48154845 -337.89281679 134.27096088 -307.19140625 101.30859375 C-305.99900503 99.93784192 -304.81126742 98.56301512 -303.62890625 97.18359375 C-297.61188348 90.31289727 -291.15972157 84.30044375 -284.03125 78.58984375 C-282.19236782 77.11266742 -280.37061802 75.61379835 -278.5703125 74.08984375 C-266.49158047 63.89560929 -253.15795122 55.64974339 -239.19140625 48.30859375 C-238.44246094 47.91172363 -237.69351563 47.51485352 -236.921875 47.10595703 C-202.31301626 29.01952816 -164.43516926 20.84056713 -125.56640625 20.99609375 C-124.59585297 20.9982489 -123.62529968 21.00040405 -122.62533569 21.00262451 C-95.06476228 21.10079269 -69.3046437 25.24065592 -43.19140625 34.30859375 C-42.57394531 33.19742188 -41.95648438 32.08625 -41.3203125 30.94140625 C-36.86836792 23.07128872 -32.53807597 15.88931029 -26.19921875 9.38671875 C-24.09860769 7.28045737 -24.09860769 7.28045737 -22.08984375 4.65625 C-16.81186919 -1.87062801 -7.68631266 -2.4250933 0 0 Z " fill="#833FAF" transform="translate(370.19140625,0.69140625)"/>
<path d="M0 0 C5.213585 2.69124582 7.99406933 6.86502049 9.80859375 12.30859375 C10.60100976 18.89473994 9.61340899 23.86601027 5.80859375 29.30859375 C2.92968286 32.7622958 -0.07973509 36.06394519 -3.19140625 39.30859375 C1.72409999 45.23566652 7.03219245 50.66763039 12.48583984 56.09936523 C13.45244486 57.06568765 14.41882869 58.03223136 15.38500977 58.99897766 C17.98977588 61.60402892 20.59759825 64.20600058 23.20600843 66.80740237 C25.93842713 69.53354014 28.66798574 72.26253861 31.39785767 74.9912262 C36.55929989 80.14956902 41.72328435 85.30535894 46.88820231 90.46022135 C52.77171455 96.33252912 58.65236383 102.20770038 64.53278232 108.08310592 C76.62155171 120.16144245 88.71388565 132.23620404 100.80859375 144.30859375 C99.80859375 147.30859375 99.80859375 147.30859375 97.18359375 148.80859375 C76.58193205 157.96488784 76.58193205 157.96488784 68.80859375 156.30859375 C65.42852478 154.19737448 62.82406026 151.46386355 60.07592773 148.59765625 C59.25531357 147.77835632 58.4346994 146.9590564 57.58921814 146.1149292 C54.88915236 143.40860624 52.22234016 140.67184058 49.5546875 137.93359375 C47.6861896 136.04830517 45.81599945 134.16486338 43.94337463 132.28369141 C39.52670757 127.83910111 35.13347425 123.37208175 30.7482844 118.89645576 C25.75277493 113.80019245 20.73154708 108.7295984 15.70804107 103.66095352 C5.37946112 93.23841391 -4.91660145 82.78414678 -15.19140625 72.30859375 C-15.22442061 76.44529324 -15.24418466 80.58195822 -15.26171875 84.71875 C-15.27114502 85.8797522 -15.28057129 87.04075439 -15.2902832 88.23693848 C-15.34863087 106.62617936 -10.83791602 124.07080683 -6.69458008 141.90454102 C-6.19140625 144.30859375 -6.19140625 144.30859375 -6.19140625 146.30859375 C-15.9034813 145.6148741 -25.24824437 143.02428713 -34.57421875 140.33203125 C-43.13577253 137.8887108 -51.74320469 136.19231887 -60.50390625 134.62109375 C-61.69661133 134.40654541 -62.88931641 134.19199707 -64.11816406 133.97094727 C-97.57511334 128.12321785 -132.48303267 129.2805769 -161.51171875 148.5078125 C-164.48832977 150.68888426 -167.35219536 152.95204871 -170.19140625 155.30859375 C-171.0525 156.00597656 -171.91359375 156.70335937 -172.80078125 157.421875 C-193.13798725 174.69586829 -204.53145319 200.05434556 -207.19140625 226.30859375 C-208.3321835 245.58487727 -206.80741046 264.19582403 -202.51269531 282.98046875 C-201.64018921 286.83335012 -200.95247713 290.32644179 -201.19140625 294.30859375 C-199.60368408 294.46050171 -199.60368408 294.46050171 -197.98388672 294.61547852 C-192.04163789 295.36287746 -186.3055229 296.91614787 -180.51171875 298.3984375 C-179.30377655 298.70302383 -178.09583435 299.00761017 -176.85128784 299.32142639 C-173.65517567 300.12782591 -170.46006417 300.93803137 -167.26550293 301.75054932 C-162.77903482 302.89120299 -158.29134433 304.02700645 -153.802948 305.16004944 C-151.4203792 305.7617554 -149.03844338 306.36597532 -146.65725708 306.97312927 C-117.17390913 314.43192342 -86.01441208 318.34146844 -58.1484375 303.7109375 C-41.48734769 293.77068223 -31.72176467 278.19354126 -26.57421875 259.8125 C-24.90041193 252.9101764 -24.73506505 246.25933761 -24.81640625 239.18359375 C-24.82583252 237.90605225 -24.83525879 236.62851074 -24.8449707 235.31225586 C-25.00303879 225.35774508 -25.97790714 215.99752452 -28.19140625 206.30859375 C-28.39491699 205.39932129 -28.59842773 204.49004883 -28.80810547 203.55322266 C-29.67961481 199.6697564 -30.55277449 195.78749695 -31.47729492 191.91625977 C-32.71188321 186.714483 -33.63351769 181.62713133 -34.19140625 176.30859375 C-26.25649683 177.63928673 -18.48589794 179.38378849 -10.69140625 181.37109375 C-9.62148438 181.63986328 -8.5515625 181.90863281 -7.44921875 182.18554688 C0.34093953 184.15270901 0.34093953 184.15270901 3.80859375 185.30859375 C4.65707032 187.88521745 5.27448827 190.28686038 5.80859375 192.93359375 C5.97520508 193.73337646 6.14181641 194.53315918 6.31347656 195.35717773 C13.40423018 230.74654607 15.14740625 269.51099816 -5.40771484 300.94824219 C-22.67510094 326.36326085 -46.35414895 341.3634191 -76.3125 348 C-109.39187218 353.78990235 -142.12717501 345.06559794 -174.00302124 337.11097717 C-178.28629613 336.04358456 -182.57106679 334.98225031 -186.85577393 333.92062378 C-189.96633314 333.14601453 -193.07378883 332.35982417 -196.18115234 331.57250977 C-206.15046427 329.07095234 -216.14622084 326.77744431 -226.26171875 324.9453125 C-227.120466 324.77683304 -227.97921326 324.60835358 -228.86398315 324.43476868 C-239.52100958 322.62303413 -250.41997389 323.16303299 -261.19140625 323.30859375 C-260.57157568 323.90906666 -260.57157568 323.90906666 -259.93922329 324.52167034 C-249.86841568 334.28275572 -239.83695683 344.08282559 -229.84747982 353.92714977 C-225.01552407 358.68703611 -220.17132426 363.43306024 -215.2956543 368.14819336 C-210.58873161 372.70020858 -205.91930486 377.28867167 -201.27108955 381.90062904 C-199.49344918 383.65243742 -197.70354637 385.39189329 -195.90135002 387.11842918 C-181.02961768 401.39024427 -181.02961768 401.39024427 -180.31721497 407.23640442 C-180.53878438 410.56118531 -181.06887477 413.18558328 -182.19140625 416.30859375 C-182.60326172 418.09716797 -182.60326172 418.09716797 -183.0234375 419.921875 C-183.50876953 421.25798828 -183.50876953 421.25798828 -184.00390625 422.62109375 C-184.35582031 423.59175781 -184.70773438 424.56242187 -185.0703125 425.5625 C-186.58390072 429.27000007 -188.29297542 432.78293649 -190.19140625 436.30859375 C-190.85140625 436.30859375 -191.51140625 436.30859375 -192.19140625 436.30859375 C-192.19140625 435.64859375 -192.19140625 434.98859375 -192.19140625 434.30859375 C-192.85140625 434.30859375 -193.51140625 434.30859375 -194.19140625 434.30859375 C-194.19140625 433.64859375 -194.19140625 432.98859375 -194.19140625 432.30859375 C-194.85140625 432.30859375 -195.51140625 432.30859375 -196.19140625 432.30859375 C-197.53036257 430.64644107 -198.86270767 428.97895768 -200.19140625 427.30859375 C-201.55265625 426.22578125 -201.55265625 426.22578125 -202.94140625 425.12109375 C-203.68390625 424.52296875 -204.42640625 423.92484375 -205.19140625 423.30859375 C-205.19140625 422.64859375 -205.19140625 421.98859375 -205.19140625 421.30859375 C-205.85140625 421.30859375 -206.51140625 421.30859375 -207.19140625 421.30859375 C-208.63408375 419.84925938 -208.63408375 419.84925938 -210.3117218 417.82533264 C-214.109583 413.36259973 -218.13642891 409.19525078 -222.26635742 405.04077148 C-223.04124008 404.25771133 -223.81612274 403.47465118 -224.61448669 402.66786194 C-227.15144716 400.10630525 -229.69234562 397.54871356 -232.234375 394.9921875 C-233.10556787 394.11567095 -233.97676075 393.2391544 -234.87435341 392.33607674 C-239.00119771 388.18536124 -243.13033697 384.03695173 -247.26268882 379.89171928 C-252.02353866 375.11572834 -256.77414383 370.32982986 -261.51671618 365.53569072 C-265.63710444 361.37203756 -269.7710347 357.22204109 -273.90990639 353.07676888 C-275.66648756 351.31345122 -277.41879231 349.54586303 -279.16676903 347.77401543 C-281.60122823 345.30817665 -284.05072853 342.85832581 -286.50463867 340.41186523 C-287.22731934 339.67277924 -287.95 338.93369324 -288.69458008 338.17221069 C-289.36309494 337.51201431 -290.0316098 336.85181793 -290.72038269 336.1716156 C-291.2975513 335.59113685 -291.87471991 335.01065809 -292.46937847 334.41258907 C-294.14699338 333.08174527 -294.14699338 333.08174527 -296.27626514 333.5432291 C-300.46382454 335.21674021 -303.77818198 338.42941137 -307.19140625 341.30859375 C-307.805 341.82421875 -308.41859375 342.33984375 -309.05078125 342.87109375 C-314.72700746 348.07864073 -318.41592116 354.66894757 -322.19140625 361.30859375 C-322.59746094 361.99566406 -323.00351562 362.68273437 -323.421875 363.390625 C-324.43119611 365.9062426 -324.46795834 367.60712177 -324.19140625 370.30859375 C-322.74640283 372.49265684 -322.74640283 372.49265684 -320.63626099 374.47174072 C-319.45420074 375.66627869 -319.45420074 375.66627869 -318.2482605 376.88494873 C-317.37243317 377.74437073 -316.49660583 378.60379272 -315.59423828 379.48925781 C-314.22380371 380.86319702 -314.22380371 380.86319702 -312.82568359 382.26489258 C-310.32028534 384.77599911 -307.79967332 387.27131114 -305.2759347 389.76396656 C-302.63901314 392.3733539 -300.0158557 394.99650608 -297.39108276 397.61810303 C-292.98229032 402.01769128 -288.56444075 406.40800526 -284.14013672 410.79199219 C-277.89643066 416.97885415 -271.67004758 423.18292984 -265.44664216 429.39020205 C-261.13919766 433.6851981 -256.82764514 437.97606952 -252.51530981 442.26615429 C-251.46860284 443.30749663 -250.42200973 444.34895344 -249.37552881 445.39052296 C-245.93673954 448.81283457 -242.49325183 452.23034423 -239.04736328 455.64550781 C-238.17558441 456.51302673 -237.30380554 457.38054565 -236.40560913 458.27435303 C-235.21508942 459.45197205 -235.21508942 459.45197205 -234.0005188 460.65338135 C-233.30917406 461.33915379 -232.61782932 462.02492622 -231.90553474 462.73147964 C-230.26437812 464.3873139 -230.26437812 464.3873139 -228.19140625 465.30859375 C-228.19140625 465.96859375 -228.19140625 466.62859375 -228.19140625 467.30859375 C-230.08686017 467.7892591 -231.98278664 468.26806118 -233.87890625 468.74609375 C-235.46251953 469.14634766 -235.46251953 469.14634766 -237.078125 469.5546875 C-245.90107967 471.69123738 -256.55705205 474.25234535 -264.89453125 469.46484375 C-268.55310636 467.01733063 -271.86946497 464.18754547 -275.19140625 461.30859375 C-276.32559237 460.37322264 -277.46230094 459.44090139 -278.6015625 458.51171875 C-281.85174301 455.83712544 -285.03057514 453.08783769 -288.19140625 450.30859375 C-289.5371875 449.13103516 -289.5371875 449.13103516 -290.91015625 447.9296875 C-300.19063832 439.69469184 -308.52689155 431.06860727 -316.19140625 421.30859375 C-316.94260742 420.3640332 -316.94260742 420.3640332 -317.70898438 419.40039062 C-325.3448154 409.77979485 -332.28245851 400.08093176 -338.19140625 389.30859375 C-338.66465332 388.44959473 -339.13790039 387.5905957 -339.62548828 386.70556641 C-341.20717151 383.8117537 -342.76569003 380.90660946 -344.31640625 377.99609375 C-344.79537354 377.10841309 -345.27434082 376.22073242 -345.76782227 375.30615234 C-353.54434621 360.44281833 -358.39696421 345.15993363 -361.87890625 328.80859375 C-362.0680661 327.93575745 -362.25722595 327.06292114 -362.45211792 326.16363525 C-363.5760657 320.97255906 -364.66705549 315.77558789 -365.7286377 310.57141113 C-366.13913622 308.56418056 -366.55865814 306.55880004 -366.97949219 304.55371094 C-372.4022046 278.0855225 -372.46874878 248.82108219 -367.19140625 222.30859375 C-367.03043457 221.45088379 -366.86946289 220.59317383 -366.70361328 219.70947266 C-358.26032168 175.48154845 -337.89281679 134.27096088 -307.19140625 101.30859375 C-305.99900503 99.93784192 -304.81126742 98.56301512 -303.62890625 97.18359375 C-297.61188348 90.31289727 -291.15972157 84.30044375 -284.03125 78.58984375 C-282.19236782 77.11266742 -280.37061802 75.61379835 -278.5703125 74.08984375 C-266.49158047 63.89560929 -253.15795122 55.64974339 -239.19140625 48.30859375 C-238.44246094 47.91172363 -237.69351563 47.51485352 -236.921875 47.10595703 C-202.31301626 29.01952816 -164.43516926 20.84056713 -125.56640625 20.99609375 C-124.59585297 20.9982489 -123.62529968 21.00040405 -122.62533569 21.00262451 C-95.06476228 21.10079269 -69.3046437 25.24065592 -43.19140625 34.30859375 C-42.57394531 33.19742188 -41.95648438 32.08625 -41.3203125 30.94140625 C-36.86836792 23.07128872 -32.53807597 15.88931029 -26.19921875 9.38671875 C-24.09860769 7.28045737 -24.09860769 7.28045737 -22.08984375 4.65625 C-16.81186919 -1.87062801 -7.68631266 -2.4250933 0 0 Z " fill="#833FAF" transform="translate(370.19140625,0.69140625)"/>
<path d="M0 0 C5.23344214 4.36142274 10.05829579 8.96541967 14.81201172 13.84130859 C16.35942069 15.41834831 17.90694164 16.99527815 19.45455933 18.57211304 C20.67015345 19.81334993 20.67015345 19.81334993 21.91030502 21.07966232 C26.22893802 25.48296247 30.56699622 29.8670726 34.90234375 34.25390625 C40.40756108 39.82523226 45.90643069 45.40231631 51.38037109 51.00439453 C55.81684155 55.54368371 60.27493672 60.06068632 64.74847794 64.5634346 C66.44619793 66.28027784 68.13584055 68.00514798 69.81710434 69.73810959 C72.16733698 72.15836967 74.54419472 74.54912642 76.92919922 76.93505859 C77.61520203 77.65498993 78.30120483 78.37492126 79.00799561 79.1166687 C82.47547283 82.52661358 84.7672824 84.42567179 89.74832153 84.51260376 C94.12289374 84.20322607 98.02186019 82.95683108 102.0625 81.3125 C102.76004395 81.03704346 103.45758789 80.76158691 104.17626953 80.4777832 C111.60381105 77.46833329 117.10320782 73.88891513 123 68.4375 C128.38650039 63.50330117 133.0300316 59.92138283 140.5 59.5 C146.63308832 59.80718404 151.23913385 62.14883302 155.4375 66.5625 C158.8925873 71.95243619 158.77393068 77.80081526 158 84 C153.17185646 96.52547075 137.51116881 105.58803355 125.89160156 110.97802734 C96.08010668 123.97563 63.39780166 123.52040409 32 117 C30.90204102 116.77505859 29.80408203 116.55011719 28.67285156 116.31835938 C12.98413173 113.06127885 -2.53560891 109.18635627 -18 105 C-17.83395264 105.67353516 -17.66790527 106.34707031 -17.49682617 107.04101562 C-14.32140191 119.96740451 -11.15914052 132.85875628 -9 146 C-8.81824219 147.01191406 -8.63648438 148.02382812 -8.44921875 149.06640625 C-5.86907423 171.65949781 -6.75294452 195.8973403 -21.22802734 214.58544922 C-34.16412503 230.30763553 -50.30009484 240.41873413 -70.75708008 242.79711914 C-82.89808348 243.89532028 -95.16842296 243.46078035 -107.1875 241.49609375 C-108.24061874 241.32527283 -109.29373749 241.1544519 -110.37876892 240.97845459 C-124.5579033 238.54491661 -138.46102935 234.88773407 -152.38458252 231.30834961 C-156.07789497 230.36150035 -159.77445167 229.42748441 -163.47070312 228.4921875 C-170.65025684 226.67357069 -177.82626737 224.8414615 -185 223 C-185.20423584 222.04520752 -185.40847168 221.09041504 -185.61889648 220.10668945 C-185.88774658 218.85073975 -186.15659668 217.59479004 -186.43359375 216.30078125 C-186.69970459 215.05723877 -186.96581543 213.81369629 -187.23999023 212.5324707 C-187.687979 210.45025115 -188.13973065 208.36882447 -188.60009766 206.28930664 C-195.76477958 173.7229145 -194.5203741 137.48632619 -176.73071289 108.51123047 C-160.81661268 83.84290796 -137.36931771 67.86105677 -109.0546875 60.796875 C-73.02756454 53.10989975 -32.61779642 62.85892547 2.046875 73.16796875 C4.68855545 73.91225173 7.30192614 74.50535313 10 75 C9.76925781 74.11183594 9.53851563 73.22367187 9.30078125 72.30859375 C7.16023244 63.92407253 5.17478198 55.51334607 3.3125 47.0625 C2.99116089 45.62571899 2.99116089 45.62571899 2.66333008 44.15991211 C0.37053436 33.63352156 -0.1369635 23.71179585 -0.0625 12.9375 C-0.05798828 11.69033203 -0.05347656 10.44316406 -0.04882812 9.15820312 C-0.03713163 6.10541779 -0.02074086 3.05273502 0 0 Z " fill="#64F8E9" transform="translate(354,72)"/>
<path d="M0 0 C7.93490942 1.33069298 15.70550831 3.07519474 23.5 5.0625 C24.56992187 5.33126953 25.63984375 5.60003906 26.7421875 5.87695312 C34.53234578 7.84411526 34.53234578 7.84411526 38 9 C38.84847657 11.5766237 39.46589452 13.97826663 40 16.625 C40.24991699 17.82467407 40.24991699 17.82467407 40.50488281 19.04858398 C47.59563643 54.43795232 49.3388125 93.20240441 28.78369141 124.63964844 C11.51630531 150.0546671 -12.1627427 165.05482535 -42.12109375 171.69140625 C-75.20046593 177.4813086 -107.93576876 168.75700419 -139.81161499 160.80238342 C-144.09488988 159.73499081 -148.37966054 158.67365656 -152.66436768 157.61203003 C-155.77492689 156.83742078 -158.88238258 156.05123042 -161.98974609 155.26391602 C-171.95905802 152.76235859 -181.95481459 150.46885056 -192.0703125 148.63671875 C-192.92905975 148.46823929 -193.78780701 148.29975983 -194.6725769 148.12617493 C-205.32960333 146.31444038 -216.22856764 146.85443924 -227 147 C-226.58677962 147.40031528 -226.17355925 147.80063055 -225.74781704 148.21307659 C-215.67700943 157.97416197 -205.64555058 167.77423184 -195.65607357 177.61855602 C-190.82411782 182.37844236 -185.97991801 187.12446649 -181.10424805 191.83959961 C-176.39732536 196.39161483 -171.72789861 200.98007792 -167.0796833 205.59203529 C-165.30204293 207.34384367 -163.51214012 209.08329954 -161.70994377 210.80983543 C-146.83821143 225.08165052 -146.83821143 225.08165052 -146.12580872 230.92781067 C-146.34737813 234.25259156 -146.87746852 236.87698953 -148 240 C-148.41185547 241.78857422 -148.41185547 241.78857422 -148.83203125 243.61328125 C-149.31736328 244.94939453 -149.31736328 244.94939453 -149.8125 246.3125 C-150.16441406 247.28316406 -150.51632813 248.25382813 -150.87890625 249.25390625 C-152.39249447 252.96140632 -154.10156917 256.47434274 -156 260 C-156.66 260 -157.32 260 -158 260 C-158 259.34 -158 258.68 -158 258 C-158.66 258 -159.32 258 -160 258 C-160 257.34 -160 256.68 -160 256 C-160.66 256 -161.32 256 -162 256 C-163.33895632 254.33784732 -164.67130142 252.67036393 -166 251 C-166.9075 250.278125 -167.815 249.55625 -168.75 248.8125 C-169.4925 248.214375 -170.235 247.61625 -171 247 C-171 246.34 -171 245.68 -171 245 C-171.66 245 -172.32 245 -173 245 C-174.4426775 243.54066563 -174.4426775 243.54066563 -176.12031555 241.51673889 C-179.91817675 237.05400598 -183.94502266 232.88665703 -188.07495117 228.73217773 C-188.84983383 227.94911758 -189.62471649 227.16605743 -190.42308044 226.35926819 C-192.96004091 223.7977115 -195.50093937 221.24011981 -198.04296875 218.68359375 C-199.34975806 217.36881892 -199.34975806 217.36881892 -200.68294716 216.02748299 C-204.80979146 211.87676749 -208.93893072 207.72835798 -213.07128257 203.58312553 C-217.83213241 198.80713459 -222.58273758 194.02123611 -227.32530993 189.22709697 C-231.44569819 185.06344381 -235.57962845 180.91344734 -239.71850014 176.76817513 C-241.47508131 175.00485747 -243.22738606 173.23726928 -244.97536278 171.46542168 C-247.40982198 168.9995829 -249.85932228 166.54973206 -252.31323242 164.10327148 C-253.03591309 163.36418549 -253.75859375 162.62509949 -254.50317383 161.86361694 C-255.17168869 161.20342056 -255.84020355 160.54322418 -256.52897644 159.86302185 C-257.10614505 159.2825431 -257.68331366 158.70206434 -258.27797222 158.10399532 C-259.95558713 156.77315152 -259.95558713 156.77315152 -262.08485889 157.23463535 C-266.27241829 158.90814646 -269.58677573 162.12081762 -273 165 C-273.61359375 165.515625 -274.2271875 166.03125 -274.859375 166.5625 C-280.53560121 171.77004698 -284.22451491 178.36035382 -288 185 C-288.40605469 185.68707031 -288.81210937 186.37414062 -289.23046875 187.08203125 C-290.23978986 189.59764885 -290.27655209 191.29852802 -290 194 C-288.55499658 196.18406309 -288.55499658 196.18406309 -286.44485474 198.16314697 C-285.26279449 199.35768494 -285.26279449 199.35768494 -284.05685425 200.57635498 C-283.18102692 201.43577698 -282.30519958 202.29519897 -281.40283203 203.18066406 C-280.03239746 204.55460327 -280.03239746 204.55460327 -278.63427734 205.95629883 C-276.12887909 208.46740536 -273.60826707 210.96271739 -271.08452845 213.45537281 C-268.44760689 216.06476015 -265.82444945 218.68791233 -263.19967651 221.30950928 C-258.79088407 225.70909753 -254.3730345 230.09941151 -249.94873047 234.48339844 C-243.70502441 240.6702604 -237.47864133 246.87433609 -231.25523591 253.0816083 C-226.94779141 257.37660435 -222.63623889 261.66747577 -218.32390356 265.95756054 C-217.27719659 266.99890288 -216.23060348 268.04035969 -215.18412256 269.08192921 C-211.74533329 272.50424082 -208.30184558 275.92175048 -204.85595703 279.33691406 C-203.98417816 280.20443298 -203.11239929 281.0719519 -202.21420288 281.96575928 C-201.42052307 282.75083862 -200.62684326 283.53591797 -199.80911255 284.3447876 C-199.11776781 285.03056004 -198.42642307 285.71633247 -197.71412849 286.42288589 C-196.07297187 288.07872015 -196.07297187 288.07872015 -194 289 C-194 289.66 -194 290.32 -194 291 C-195.89545392 291.48066535 -197.79138039 291.95946743 -199.6875 292.4375 C-201.27111328 292.83775391 -201.27111328 292.83775391 -202.88671875 293.24609375 C-211.70967342 295.38264363 -222.3656458 297.9437516 -230.703125 293.15625 C-234.36170011 290.70873688 -237.67805872 287.87895172 -241 285 C-242.13418612 284.06462889 -243.27089469 283.13230764 -244.41015625 282.203125 C-247.66033676 279.52853169 -250.83916889 276.77924394 -254 274 C-255.34578125 272.82244141 -255.34578125 272.82244141 -256.71875 271.62109375 C-265.99923207 263.38609809 -274.3354853 254.76001352 -282 245 C-282.75120117 244.05543945 -282.75120117 244.05543945 -283.51757812 243.09179688 C-298.68478604 223.98221 -316.52829263 199.06936445 -322 175 C-317.77811677 155.72509264 -299.45038194 138.31854042 -283.67578125 127.71875 C-263.92404255 115.18983646 -243.89439677 110.57973964 -220.625 110.75 C-219.94180695 110.75376648 -219.25861389 110.75753296 -218.55471802 110.76141357 C-208.5454241 110.82596422 -198.86004893 111.16048663 -189 113 C-188.12102051 113.15114258 -187.24204102 113.30228516 -186.33642578 113.45800781 C-164.72340141 117.20789049 -143.51744387 122.74729398 -122.27148438 128.14941406 C-121.07722839 128.45258545 -119.88297241 128.75575684 -118.65252686 129.06811523 C-116.40255182 129.64020631 -114.1531971 130.21474507 -111.90460205 130.79223633 C-82.63455317 138.24712542 -51.59481091 141.91306504 -23.95703125 127.40234375 C-7.29594144 117.46208848 2.46964158 101.88494751 7.6171875 83.50390625 C9.29099432 76.60158265 9.4563412 69.95074386 9.375 62.875 C9.36557373 61.5974585 9.35614746 60.31991699 9.34643555 59.00366211 C9.18836746 49.04915133 8.21349911 39.68893077 6 30 C5.79648926 29.09072754 5.59297852 28.18145508 5.38330078 27.24462891 C4.51179144 23.36116265 3.63863176 19.4789032 2.71411133 15.60766602 C1.47952304 10.40588925 0.55788856 5.31853758 0 0 Z " fill="#FEC142" transform="translate(336,177)"/>
<path d="M0 0 C12.53620209 -0.56555604 24.61470598 -0.26362454 36.96875 2.0625 C38.16328796 2.28193771 39.35782593 2.50137543 40.58856201 2.72746277 C54.60515955 5.37978857 68.42192217 8.82738194 82.25 12.3125 C84.86801917 12.96608718 87.4867354 13.61685919 90.10546875 14.26757812 C96.40608761 15.83540311 102.70408957 17.41337883 109 19 C113.32853871 36.11875225 116.36821239 52.44392641 116.31567383 70.15136719 C116.31251137 72.36703724 116.33610739 74.58136799 116.36132812 76.796875 C116.42251647 90.26193756 115.02289856 103.7914392 109.75 116.3125 C109.44698975 117.05757813 109.14397949 117.80265625 108.83178711 118.5703125 C104.38794817 129.20521924 98.45194688 138.23912832 91 147 C90.17048828 148.03060547 90.17048828 148.03060547 89.32421875 149.08203125 C81.25445544 158.84663745 70.92141709 165.80325243 60 172 C59.08863281 172.63164062 58.17726563 173.26328125 57.23828125 173.9140625 C48.73737331 176.76478917 38.30792623 169.5390317 30.8125 165.875 C29.62809326 165.30040039 28.44368652 164.72580078 27.22338867 164.13378906 C18.56286478 159.8826579 9.95408363 155.48925034 2 150 C2 149.67 2 149.34 2 149 C3.38058594 148.94392578 3.38058594 148.94392578 4.7890625 148.88671875 C12.84925571 148.46811401 20.30359711 147.4983427 28.171875 145.62109375 C31 145 31 145 34 145 C34 144.34 34 143.68 34 143 C33.42287923 142.74680842 32.84575846 142.49361685 32.25114918 142.2327528 C29.7305312 140.85243607 28.0258634 139.29463992 25.98161316 137.2759552 C25.19215302 136.50080566 24.40269287 135.72565613 23.58930969 134.92701721 C22.73250107 134.0755864 21.87569244 133.22415558 20.99291992 132.34692383 C20.08364746 131.45079376 19.174375 130.5546637 18.23754883 129.63137817 C15.22801339 126.66380709 12.22904951 123.68566404 9.23046875 120.70703125 C8.19658868 119.68124892 7.16264078 118.65553495 6.12862587 117.62988853 C1.27374291 112.81307344 -3.57632923 107.99147783 -8.42054826 103.16393834 C-14.01164146 97.59241508 -19.61891324 92.03786093 -25.24043924 86.49704915 C-29.58657624 82.21118883 -33.91728852 77.91013087 -38.23670501 73.59734362 C-40.81643703 71.02231554 -43.40237239 68.45433713 -46.00477028 65.9022007 C-48.90547006 63.05663313 -51.77360714 60.18027815 -54.63989258 57.30004883 C-55.50682236 56.45873917 -56.37375214 55.6174295 -57.26695251 54.75062561 C-62.9747651 48.94057934 -62.9747651 48.94057934 -63.10453796 44.1035614 C-58.13941905 30.15243259 -47.23021413 18.15347609 -35 10 C-31.50288722 10.30571914 -29.79473042 11.83037868 -27.36798096 14.25779724 C-26.66410751 14.95465637 -25.96023407 15.6515155 -25.23503113 16.36949158 C-24.47330093 17.13886551 -23.71157074 17.90823944 -22.92675781 18.70092773 C-22.11662735 19.50740753 -21.30649689 20.31388733 -20.47181702 21.14480591 C-17.79145851 23.81704697 -15.12212504 26.50001153 -12.453125 29.18359375 C-10.59847239 31.03876474 -8.74330202 32.89341826 -6.88763428 34.74757385 C-2.99880022 38.63552525 0.88401062 42.52941263 4.76318359 46.42700195 C9.25234599 50.93735385 13.75029779 55.43878876 18.25318217 59.93543857 C22.58171943 64.25828871 26.90451994 68.58682332 31.22464752 72.91807747 C33.06540235 74.76269346 34.90752205 76.60594845 36.75099945 78.44784355 C39.32041682 81.01689204 41.88326688 83.59231045 44.44433594 86.16967773 C45.21416306 86.93702744 45.98399017 87.70437714 46.77714539 88.49497986 C47.46973953 89.19465881 48.16233368 89.89433777 48.87591553 90.61521912 C49.48279079 91.22414725 50.08966606 91.83307539 50.71493149 92.46045589 C52 94 52 94 52 96 C53.485 96.495 53.485 96.495 55 97 C55 97.66 55 98.32 55 99 C55.66 99 56.32 99 57 99 C57 99.66 57 100.32 57 101 C58.485 101.495 58.485 101.495 60 102 C60 102.66 60 103.32 60 104 C61.485 104.495 61.485 104.495 63 105 C63 105.66 63 106.32 63 107 C64.485 107.495 64.485 107.495 66 108 C66 108.66 66 109.32 66 110 C66.66 110 67.32 110 68 110 C68 110.66 68 111.32 68 112 C68.66 112 69.32 112 70 112 C70 112.66 70 113.32 70 114 C70.66 114 71.32 114 72 114 C72.37125 112.8553125 72.37125 112.8553125 72.75 111.6875 C73.45601568 109.60475374 74.17816575 107.52683851 74.953125 105.46875 C77.10235121 99.75886544 79.20377299 94.07646925 80 88 C80.15758789 86.96579926 80.31517578 85.93159851 80.47753906 84.86605835 C79.77370237 79.16794079 76.68048113 76.7578339 72.65625 72.87744141 C71.87596436 72.09773987 71.09567871 71.31803833 70.29174805 70.51470947 C67.710591 67.94352134 65.10565511 65.39790089 62.5 62.8515625 C60.70478864 61.07194709 58.91118889 59.29070461 57.11914062 57.50790405 C52.88177738 53.29961989 48.62956648 49.10694633 44.3693924 44.92180097 C38.10743903 38.76847145 31.87275843 32.58761044 25.63659668 26.40816307 C21.16315683 21.97595578 16.68597111 17.54776345 12.19726562 13.13101196 C11.37589111 12.3212088 10.5545166 11.51140564 9.70825195 10.67706299 C8.16646429 9.15720421 6.62277034 7.63927609 5.0769043 6.12356567 C4.40377197 5.4591748 3.73063965 4.79478394 3.03710938 4.11026001 C2.15218811 3.24035903 2.15218811 3.24035903 1.24938965 2.35288429 C0 1 0 1 0 0 Z " fill="#03BFFB" transform="translate(108,323)"/>
<path d="M0 0 C5.213585 2.69124582 7.99406933 6.86502049 9.80859375 12.30859375 C10.60100976 18.89473994 9.61340899 23.86601027 5.80859375 29.30859375 C2.92968286 32.7622958 -0.07973509 36.06394519 -3.19140625 39.30859375 C1.72409999 45.23566652 7.03219245 50.66763039 12.48583984 56.09936523 C13.45244486 57.06568765 14.41882869 58.03223136 15.38500977 58.99897766 C17.98977588 61.60402892 20.59759825 64.20600058 23.20600843 66.80740237 C25.93842713 69.53354014 28.66798574 72.26253861 31.39785767 74.9912262 C36.55929989 80.14956902 41.72328435 85.30535894 46.88820231 90.46022135 C52.77171455 96.33252912 58.65236383 102.20770038 64.53278232 108.08310592 C76.62155171 120.16144245 88.71388565 132.23620404 100.80859375 144.30859375 C99.80859375 147.30859375 99.80859375 147.30859375 97.18359375 148.80859375 C76.58193205 157.96488784 76.58193205 157.96488784 68.80859375 156.30859375 C65.42852478 154.19737448 62.82406026 151.46386355 60.07592773 148.59765625 C59.25531357 147.77835632 58.4346994 146.9590564 57.58921814 146.1149292 C54.88915236 143.40860624 52.22234016 140.67184058 49.5546875 137.93359375 C47.6861896 136.04830517 45.81599945 134.16486338 43.94337463 132.28369141 C39.52670757 127.83910111 35.13347425 123.37208175 30.7482844 118.89645576 C25.75277493 113.80019245 20.73154708 108.7295984 15.70804107 103.66095352 C5.37946112 93.23841391 -4.91660145 82.78414678 -15.19140625 72.30859375 C-15.22442061 76.44529324 -15.24418466 80.58195822 -15.26171875 84.71875 C-15.27114502 85.8797522 -15.28057129 87.04075439 -15.2902832 88.23693848 C-15.34863087 106.62617936 -10.83791602 124.07080683 -6.69458008 141.90454102 C-6.19140625 144.30859375 -6.19140625 144.30859375 -6.19140625 146.30859375 C-14.0945661 145.74408233 -21.54639187 143.88644885 -29.16357422 141.82177734 C-31.09440346 141.33314225 -33.0516233 140.95254402 -35.0078125 140.578125 C-36.16152344 140.32417969 -37.31523437 140.07023438 -38.50390625 139.80859375 C-39.53128906 139.61265625 -40.55867188 139.41671875 -41.6171875 139.21484375 C-46.10750214 135.88969422 -46.24332908 130.58773789 -47.19140625 125.30859375 C-47.38951904 124.28362793 -47.58763184 123.25866211 -47.79174805 122.20263672 C-54.18866706 87.25482369 -54.5803183 50.25461689 -34.5 19.48828125 C-31.80680329 15.77886988 -29.00513107 12.2007934 -26.06640625 8.68359375 C-25.57567627 8.09094727 -25.08494629 7.49830078 -24.5793457 6.88769531 C-18.07656091 -0.60689208 -9.65449549 -3.04607077 0 0 Z " fill="#FEFAB2" transform="translate(370.19140625,0.69140625)"/>
<path d="M0 0 C2.45588298 0.99778069 3.7974708 2.21184343 5.67152023 4.08640957 C6.37539368 4.7832687 7.07926712 5.48012783 7.80447006 6.1981039 C8.94706535 7.3521648 8.94706535 7.3521648 10.11274338 8.52954006 C10.92287384 9.33601986 11.7330043 10.14249966 12.56768417 10.97341824 C15.24804268 13.64565929 17.91737615 16.32862385 20.58637619 19.01220608 C22.4410288 20.86737707 24.29619917 22.72203059 26.15186691 24.57618618 C30.04070097 28.46413757 33.92351181 32.35802496 37.80268478 36.25561428 C42.29184718 40.76596618 46.78979898 45.26740109 51.29268336 49.7640509 C55.62122062 54.08690104 59.94402113 58.41543564 64.26414871 62.7466898 C66.10490354 64.59130579 67.94702324 66.43456077 69.79050064 68.27645588 C72.35991801 70.84550436 74.92276807 73.42092278 77.48383713 75.99829006 C78.25366425 76.76563976 79.02349136 77.53298946 79.81664658 78.32359219 C80.50924072 79.02327114 81.20183487 79.7229501 81.91541672 80.44383144 C82.52229198 81.05275958 83.12916725 81.66168772 83.75443268 82.28906822 C85.03950119 83.82861233 85.03950119 83.82861233 85.03950119 85.82861233 C86.52450119 86.32361233 86.52450119 86.32361233 88.03950119 86.82861233 C88.03950119 87.48861233 88.03950119 88.14861233 88.03950119 88.82861233 C88.69950119 88.82861233 89.35950119 88.82861233 90.03950119 88.82861233 C90.03950119 89.48861233 90.03950119 90.14861233 90.03950119 90.82861233 C91.52450119 91.32361233 91.52450119 91.32361233 93.03950119 91.82861233 C93.03950119 92.48861233 93.03950119 93.14861233 93.03950119 93.82861233 C94.52450119 94.32361233 94.52450119 94.32361233 96.03950119 94.82861233 C96.03950119 95.48861233 96.03950119 96.14861233 96.03950119 96.82861233 C97.52450119 97.32361233 97.52450119 97.32361233 99.03950119 97.82861233 C99.03950119 98.48861233 99.03950119 99.14861233 99.03950119 99.82861233 C99.69950119 99.82861233 100.35950119 99.82861233 101.03950119 99.82861233 C101.03950119 100.48861233 101.03950119 101.14861233 101.03950119 101.82861233 C101.69950119 101.82861233 102.35950119 101.82861233 103.03950119 101.82861233 C103.75825119 103.52783108 103.75825119 103.52783108 104.03950119 105.82861233 C101.82215184 109.50571667 98.88083565 112.61840287 96.03950119 115.82861233 C95.51098557 116.45251858 94.98246994 117.07642483 94.43793869 117.71923733 C88.42862545 124.31407339 78.64418241 131.38826831 70.03950119 133.82861233 C65.79128778 133.422971 63.82487164 132.11999248 60.8249321 129.14889431 C60.01726898 128.35829113 59.20960587 127.56768795 58.37746811 126.7531271 C57.50555328 125.87939953 56.63363846 125.00567196 55.73530197 124.1054678 C54.80637634 123.18997662 53.87745071 122.27448544 52.92037582 121.3312521 C50.37589442 118.82207492 47.8444978 116.30008391 45.31633615 113.77447557 C43.73608098 112.19706484 42.1530116 110.6225371 40.5688858 109.04901409 C35.04210319 103.55922187 29.52573675 98.05920696 24.01899338 92.54931545 C18.88552906 87.41344628 13.73015933 82.30032185 8.56403172 77.19732845 C4.12845577 72.81403876 -0.29157751 68.41548096 -4.69980824 64.0046922 C-7.33254104 61.37093923 -9.97111836 58.74377735 -12.6254425 56.13177013 C-15.58382471 53.21927696 -18.50924974 50.27571175 -21.43266678 47.32812405 C-22.31672699 46.46654186 -23.2007872 45.60495968 -24.11163712 44.71726894 C-29.93271946 38.77267528 -29.93271946 38.77267528 -30.07551956 33.9197073 C-26.82104658 24.89755677 -11.78040843 -1.02984851 0 0 Z " fill="#8441AD" transform="translate(74.96049880981445,333.1713876724243)"/>
<path d="M0 0 C3.45668661 1.2777732 5.66457865 3.41753443 8.23944092 5.99893188 C9.07794083 6.83468246 9.91644073 7.67043304 10.78034973 8.5315094 C11.69169174 9.45004196 12.60303375 10.36857452 13.54199219 11.31494141 C14.51750956 12.29102309 15.49346788 13.26666426 16.46983337 14.24189758 C19.11657103 16.8880615 21.75709755 19.54034587 24.3965559 22.19376802 C27.15697073 24.96668658 29.92305155 27.73394125 32.6885376 30.50180054 C37.92336137 35.74284012 43.15306606 40.98895703 48.38095307 46.23691499 C54.33345265 52.2117704 60.29163323 58.18094679 66.25029898 64.14965177 C78.50653378 76.42679086 90.75561142 88.71104648 103 101 C98.42594805 115.42585614 86.16367749 127.03465254 73 134 C71.11468124 134.81416225 71.11468124 134.81416225 69 135 C66.93045425 133.5456934 66.93045425 133.5456934 64.68463135 131.28590393 C63.82930313 130.43744904 62.97397491 129.58899414 62.09272766 128.71482849 C61.15305698 127.75746112 60.21362719 126.79985727 59.27441406 125.84204102 C58.27983666 124.84605379 57.28415803 123.85116521 56.28746033 122.8572998 C53.58019164 120.15146923 50.88864441 117.43046804 48.19958591 114.7065556 C45.38846263 111.86423474 42.56323039 109.03601105 39.73944092 106.20628357 C34.39231446 100.84359926 29.05806367 95.46829363 23.72828174 90.08837694 C17.66077138 83.96503357 11.57910442 77.85583485 5.49618578 71.74780381 C-7.01840026 59.18091563 -19.51502886 46.59630698 -32 34 C-27.31348984 19.21946795 -15.09455653 8.52097606 -2 1 C-1.34 0.67 -0.68 0.34 0 0 Z " fill="#823FAF" transform="translate(236,173)"/>
<path d="M0 0 C3.38501415 1.46762654 5.5993697 3.34813138 8.20147705 5.94750977 C9.44660568 7.18417892 9.44660568 7.18417892 10.71688843 8.4458313 C11.6188797 9.35187103 12.52087097 10.25791077 13.45019531 11.19140625 C14.41587635 12.15437646 15.38198218 13.11692084 16.34848022 14.07907104 C18.96855814 16.6900361 21.58227618 19.30728209 24.19462681 21.9259758 C26.92760114 24.66401289 29.66545082 27.39716786 32.40252686 30.13110352 C36.99591474 34.7208538 41.58507126 39.31480327 46.171875 43.91113281 C51.48047054 49.23062545 56.79625033 54.54285718 62.11579442 59.85139942 C66.68002807 64.40656978 71.2403685 68.96561025 75.79745173 73.52793407 C78.52058727 76.25419293 81.24506863 78.97906986 83.97306061 81.70046997 C86.53518055 84.25683055 89.09239272 86.81799954 91.64583206 89.38302994 C93.03562508 90.77674636 94.43037073 92.16551851 95.82522583 93.5541687 C96.64403229 94.37861481 97.46283875 95.20306091 98.30645752 96.05249023 C99.02394794 96.77073471 99.74143837 97.48897919 100.48067093 98.22898865 C102 100 102 100 102 102 C71.66659452 114.52240787 36.35520049 106.96916177 6 98 C4 97 4 97 3.28564453 95.02001953 C3.07020996 94.14974121 2.85477539 93.27946289 2.6328125 92.3828125 C2.38869629 91.39700195 2.14458008 90.41119141 1.89306641 89.39550781 C1.63960449 88.31624023 1.38614258 87.23697266 1.125 86.125 C0.86251465 85.00963867 0.6000293 83.89427734 0.32958984 82.74511719 C-5.72744283 56.16826556 -11.37306666 25.99558094 0 0 Z " fill="#1D8CF1" transform="translate(203,207)"/>
<path d="M0 0 C7.93490942 1.33069298 15.70550831 3.07519474 23.5 5.0625 C24.56992187 5.33126953 25.63984375 5.60003906 26.7421875 5.87695312 C34.53234578 7.84411526 34.53234578 7.84411526 38 9 C38.84847657 11.5766237 39.46589452 13.97826663 40 16.625 C40.16661133 17.42478271 40.33322266 18.22456543 40.50488281 19.04858398 C47.56770797 54.29856364 49.50011381 93.47517462 28.70898438 124.68798828 C27.90030126 125.86464187 27.08459096 127.03649429 26.26220703 128.20361328 C25.40701393 129.42073337 24.56720031 130.64877966 23.74169922 131.88623047 C16.72225059 142.28253048 16.72225059 142.28253048 10.3984375 143.94921875 C5.11167882 144.11060402 1.17766087 143.54822144 -3.625 141.3125 C-9.25846822 135.82728095 -11.88710928 131.11845645 -12.6875 123.25 C-12.57334476 117.33148961 -9.52065462 114.90523354 -5.51953125 110.87890625 C9.75786234 93.42241156 10.20335147 69.90863713 9 48 C8.48011644 41.89081971 7.36404297 35.97069039 6 30 C5.69473389 28.63609131 5.69473389 28.63609131 5.38330078 27.24462891 C4.51179144 23.36116265 3.63863176 19.4789032 2.71411133 15.60766602 C1.47952304 10.40588925 0.55788856 5.31853758 0 0 Z " fill="#FDF056" transform="translate(336,177)"/>
<path d="M0 0 C3.46251976 1.48877197 5.70085395 3.45381172 8.35333252 6.11282349 C9.21707489 6.97381653 10.08081726 7.83480957 10.97073364 8.72189331 C11.91970982 9.67794713 12.86858966 10.63409658 13.81738281 11.59033203 C14.82245647 12.59596998 15.82797103 13.60116746 16.83389282 14.60595703 C19.56120591 17.33269629 22.28230848 20.0655581 25.00234318 22.7995553 C27.84684044 25.65655487 30.69700229 28.50789188 33.54656982 31.35983276 C38.94076494 36.76024411 44.32984153 42.16573348 49.71710086 47.57306278 C55.8509762 53.72929264 61.99053138 59.87984461 68.13057184 66.02992463 C80.76004796 78.68030599 93.38236845 91.33780527 106 104 C105 107 105 107 102.375 108.5 C81.81708349 117.63685178 81.81708349 117.63685178 74 116 C70.6288495 113.93454095 68.01944129 111.2505673 65.26733398 108.43188477 C64.44671982 107.62704147 63.62610565 106.82219818 62.78062439 105.9929657 C60.0793915 103.33128387 57.41234604 100.63809494 54.74609375 97.94140625 C52.87697041 96.07834664 51.00651289 94.21662469 49.13478088 92.35618591 C45.21764546 88.45540005 41.31981241 84.5360783 37.43237305 80.60571289 C32.94490954 76.0692714 28.42593847 71.56616771 23.88923401 67.0790115 C19.51648459 62.7521085 15.16954112 58.40020761 10.83284187 54.03718376 C8.9890698 52.18741074 7.13859628 50.34429241 5.28137016 48.50802803 C2.68786773 45.93740223 0.12499782 43.33965062 -2.43188477 40.73266602 C-3.2032074 39.97956146 -3.97453003 39.22645691 -4.76922607 38.45053101 C-8.29511732 34.7956634 -10.45079959 32.36803648 -10.51670837 27.15122986 C-9.81484077 18.75446459 -6.10608344 6.10608344 0 0 Z " fill="#FDF056" transform="translate(365,41)"/>
<path d="M0 0 C1.18242235 2.36484471 0.98080335 3.51402377 0.8125 6.125 C0.77256257 11.08522888 1.87031976 15.09208376 5 19 C9.55142505 22.7950853 13.10699077 23.54063612 18.875 23.25 C19.90753906 23.22292969 19.90753906 23.22292969 20.9609375 23.1953125 C22.6412381 23.14863748 24.32081163 23.07690939 26 23 C25.55269531 23.66644531 25.10539062 24.33289063 24.64453125 25.01953125 C6.79905254 52.22532501 7.98987535 81.09145362 14 112 C15.02798981 116.63813062 16.1622752 121.24255659 17.42456055 125.82250977 C18.47819904 129.65471158 19.28837525 132.97876734 19 137 C6.20245556 134.43475873 -6.4094951 131.44018275 -19 128 C-19.74077656 124.57267377 -20.47723811 121.14452887 -21.20703125 117.71484375 C-21.65381796 115.62176907 -22.10555044 113.52969023 -22.57421875 111.44140625 C-29.91585475 77.55241447 -28.21929943 41.07128438 -9.2578125 11.30859375 C-6.53642374 7.21251889 -3.46659515 3.48888836 0 0 Z " fill="#03BFFB" transform="translate(188,167)"/>
<path d="M0 0 C1.78997707 1.33278465 1.78997707 1.33278465 3.71690369 3.07772827 C4.42235258 3.7148814 5.12780148 4.35203453 5.85462761 5.00849533 C9.17979685 8.09518093 12.4642053 11.21854407 15.71704102 14.38134766 C16.44157974 15.08325226 17.16611847 15.78515686 17.91261292 16.5083313 C24.52338145 22.9234797 31.09507795 29.37852686 37.65406895 35.84656715 C42.04988594 40.18035227 46.45825918 44.49948735 50.89868164 48.78759766 C55.21181767 52.95347835 59.48959506 57.15280504 63.74491692 61.37769699 C65.3663768 62.97587786 66.99994299 64.56187504 68.64575386 66.1349678 C81.47876434 78.4256435 81.47876434 78.4256435 82.77580261 84.83164978 C82.55406619 88.14053243 82.03651591 90.86112213 81 94 C80.58814453 95.78857422 80.58814453 95.78857422 80.16796875 97.61328125 C79.84441406 98.50402344 79.52085937 99.39476562 79.1875 100.3125 C78.83558594 101.28316406 78.48367187 102.25382812 78.12109375 103.25390625 C76.60750553 106.96140632 74.89843083 110.47434274 73 114 C72.34 114 71.68 114 71 114 C71 113.34 71 112.68 71 112 C70.34 112 69.68 112 69 112 C69 111.34 69 110.68 69 110 C68.34 110 67.68 110 67 110 C65.66104368 108.33784732 64.32869858 106.67036393 63 105 C62.0925 104.278125 61.185 103.55625 60.25 102.8125 C59.5075 102.214375 58.765 101.61625 58 101 C58 100.34 58 99.68 58 99 C57.34 99 56.68 99 56 99 C54.56278133 97.54333496 54.56278133 97.54333496 52.88938904 95.52148438 C49.05217734 91.01271495 44.9648435 86.83072054 40.76977539 82.65625 C39.97871399 81.86504257 39.18765259 81.07383514 38.37261963 80.25865173 C35.78333101 77.67005421 33.19052915 75.08500688 30.59765625 72.5 C28.79140209 70.69561288 26.98537005 68.89100339 25.17955017 67.08618164 C20.92817273 62.8382192 16.67457853 58.59248912 12.41987652 54.34785748 C7.57137828 49.5105833 2.72576009 44.67042841 -2.1196326 39.83004379 C-12.07658077 29.88351437 -22.0370938 19.94056132 -32 10 C-24.99496761 2.76072682 -9.77586221 -1.91683573 0 0 Z " fill="#FCEF56" transform="translate(107,323)"/>
<path d="M0 0 C4.28088015 -0.63467918 7.75790098 -0.59038156 11.53026962 1.764431 C17.03371247 6.03961985 21.87062653 11.06523881 26.76040649 16.01325989 C28.3784096 17.61554399 29.9979629 19.21626406 31.61898804 20.81549072 C35.00430271 24.16963349 38.36629155 27.54520038 41.71401978 30.93684387 C45.9931094 35.26746185 50.33015909 39.53410637 54.6874733 43.78582859 C58.04469972 47.07695661 61.36589313 50.40269188 64.67775726 53.73940849 C66.26268204 55.32678308 67.85909754 56.90277471 69.46726227 58.46660042 C83.29917758 71.9749405 83.29917758 71.9749405 83.72021866 79.85833645 C83.62557631 82.83671411 83.21442031 85.65417967 82.61978149 88.57185364 C82.43752518 89.54355499 82.25526886 90.51525635 82.06748962 91.5164032 C81.56907995 93.86666894 80.9209034 96.09930569 80.18228149 98.38435364 C79.95218384 99.15843567 79.72208618 99.9325177 79.48501587 100.73005676 C78.67238985 103.42703298 77.8819758 106.04746503 76.61978149 108.57185364 C73.23476734 107.1042271 71.02041179 105.22372226 68.41830444 102.62434387 C67.58821869 101.79989777 66.75813293 100.97545166 65.90289307 100.12602234 C65.00090179 99.2199826 64.09891052 98.31394287 63.16958618 97.38044739 C62.20390514 96.41747718 61.23779931 95.4549328 60.27130127 94.49278259 C57.65122335 91.88181754 55.03750531 89.26457155 52.42515469 86.64587784 C49.69218035 83.90784075 46.95433067 81.17468578 44.21725464 78.44075012 C39.62386675 73.85099984 35.03471024 69.25705037 30.44790649 64.66072083 C25.13931096 59.34122819 19.82353116 54.02899646 14.50398707 48.72045422 C9.93975342 44.16528385 5.379413 39.60624339 0.82232976 35.04391956 C-1.90080578 32.31766071 -4.62528714 29.59278378 -7.35327911 26.87138367 C-9.91539906 24.31502309 -12.47261123 21.7538541 -15.02605057 19.1888237 C-16.41584358 17.79510728 -17.81058924 16.40633512 -19.20544434 15.01768494 C-20.02425079 14.19323883 -20.84305725 13.36879272 -21.68667603 12.5193634 C-22.40416645 11.80111893 -23.12165688 11.08287445 -23.86088943 10.34286499 C-25.38021851 8.57185364 -25.38021851 8.57185364 -25.38021851 6.57185364 C-16.92486308 2.64001793 -8.85565441 2.12759382 0 0 Z " fill="#03BFFB" transform="translate(263.3802185058594,165.4281463623047)"/>
<path d="M0 0 C3.37966202 1.17995724 5.09186803 2.91689309 7.60742188 5.45703125 C8.9909082 6.84631836 8.9909082 6.84631836 10.40234375 8.26367188 C10.87518799 8.74892334 11.34803223 9.2341748 11.83520508 9.73413086 C13.27855672 11.21398608 14.73726739 12.67721217 16.19921875 14.13867188 C25.45137475 23.50769722 25.45137475 23.50769722 25.71536255 27.89483643 C24.99244379 34.22012306 23.00480149 39.61587978 20.52539062 45.453125 C19.70376836 47.45181976 18.88215401 49.45051777 18.06054688 51.44921875 C16.76237355 54.56670828 15.45979016 57.68231874 14.15576172 60.79736328 C12.89329274 63.82415521 11.64637936 66.85702007 10.40039062 69.890625 C9.80676224 71.28604523 9.80676224 71.28604523 9.20114136 72.70965576 C8.84391998 73.58116272 8.48669861 74.45266968 8.11865234 75.35058594 C7.79967987 76.1117572 7.4807074 76.87292847 7.15206909 77.65716553 C6.45734014 80.46557615 6.71810182 82.15922251 7.59570312 84.90625 C8.81272592 86.68616036 8.81272592 86.68616036 10.44726562 88.19604492 C11.34324463 89.0867292 11.34324463 89.0867292 12.25732422 89.9954071 C12.90523926 90.61953995 13.5531543 91.24367279 14.22070312 91.88671875 C14.88279785 92.54078201 15.54489258 93.19484528 16.22705078 93.86872864 C18.34068752 95.95339502 20.46751142 98.0239538 22.59570312 100.09375 C24.72123377 102.17679883 26.84394244 104.26264874 28.96435547 106.35090637 C30.28404687 107.64886855 31.60720192 108.94332009 32.93408203 110.2339325 C33.53140137 110.81826553 34.1287207 111.40259857 34.74414062 112.00463867 C35.53570557 112.77477547 35.53570557 112.77477547 36.34326172 113.56047058 C38.45950849 115.83443034 38.60578511 117.03983637 38.84570312 120.21875 C38.52194589 124.99416917 37.09971434 127.22869903 33.97070312 130.71875 C30.11174615 132.64822849 26.79778703 132.78320145 22.59570312 131.90625 C20.66184998 130.58930969 20.66184998 130.58930969 18.79663086 128.85668945 C18.10600555 128.22018463 17.41538025 127.58367981 16.7038269 126.92788696 C13.31230389 123.67550285 9.94866584 120.40193949 6.63085938 117.07421875 C5.91208115 116.35639725 5.19330292 115.63857574 4.45274353 114.89900208 C2.94993383 113.39686748 1.44836446 111.89349103 -0.05200195 110.38891602 C-2.35644447 108.07906804 -4.66624077 105.77466909 -6.9765625 103.47070312 C-8.44107637 102.00552928 -9.90528045 100.54004571 -11.36914062 99.07421875 C-12.06071762 98.38466599 -12.75229462 97.69511322 -13.46482849 96.98466492 C-14.09961624 96.34672501 -14.73440399 95.7087851 -15.38842773 95.05151367 C-15.94831894 94.49082687 -16.50821014 93.93014008 -17.08506775 93.35246277 C-19.89238279 90.27492697 -19.69867771 87.41899477 -19.64761353 83.43215942 C-19.23035694 79.10055141 -17.65904548 75.33642424 -16.00976562 71.33984375 C-15.66174393 70.46151382 -15.31372223 69.5831839 -14.95515442 68.67823792 C-13.8483559 65.89409605 -12.72068311 63.1189991 -11.59179688 60.34375 C-10.84492475 58.47778504 -10.09946895 56.61125253 -9.35546875 54.74414062 C-7.70768006 50.61209605 -6.04640025 46.48577016 -4.3724823 42.36424255 C-3.00603195 38.89515006 -1.71346426 35.39736301 -0.40429688 31.90625 C-6.34429687 25.96625 -12.28429687 20.02625 -18.40429688 13.90625 C-16.06932786 9.23631196 -13.72681415 7.54127513 -9.59179688 4.59375 C-8.97498047 4.12646484 -8.35816406 3.65917969 -7.72265625 3.17773438 C-3.13579227 -0.12227297 -3.13579227 -0.12227297 0 0 Z " fill="#BA80E2" transform="translate(108.404296875,64.09375)"/>
<path d="M0 0 C5.6125166 4.67020235 10.78830955 9.65759175 15.93286133 14.83520508 C16.79873871 15.70254272 17.66461609 16.56988037 18.55673218 17.46350098 C20.42608789 19.33664679 22.2945189 21.21066211 24.16141701 23.08625221 C27.11278191 26.0512203 30.06802997 29.01229779 33.02384949 31.9728241 C39.28971382 38.24974542 45.55131223 44.53091436 51.8125 50.8125 C58.59041077 57.61244781 65.36906407 64.41164593 72.15258235 71.20600051 C75.09216671 74.15057089 78.02929529 77.09756276 80.96457541 80.04642355 C83.21246045 82.30349443 85.46354689 84.55736885 87.71411133 86.81176758 C88.93515312 88.04055885 88.93515312 88.04055885 90.18086243 89.29417419 C90.92235535 90.03573761 91.66384827 90.77730103 92.42781067 91.54133606 C93.3958826 92.51273891 93.3958826 92.51273891 94.38351154 93.50376606 C95.94514535 95.08897628 95.94514535 95.08897628 98 96 C98 96.66 98 97.32 98 98 C96.10454608 98.48066535 94.20861961 98.95946743 92.3125 99.4375 C91.25675781 99.70433594 90.20101562 99.97117187 89.11328125 100.24609375 C80.29032658 102.38264363 69.6343542 104.9437516 61.296875 100.15625 C57.63829989 97.70873688 54.32194128 94.87895172 51 92 C49.86581388 91.06462889 48.72910531 90.13230764 47.58984375 89.203125 C44.33966324 86.52853169 41.16083111 83.77924394 38 81 C37.1028125 80.21496094 36.205625 79.42992187 35.28125 78.62109375 C26.00653302 70.39121372 17.63622444 61.77603035 10 52 C9.46197754 51.31180176 8.92395508 50.62360352 8.36962891 49.91455078 C6.59406952 47.63549666 4.82657562 45.35045262 3.0625 43.0625 C2.4943457 42.32837891 1.92619141 41.59425781 1.34082031 40.83789062 C0.80682617 40.13986328 0.27283203 39.44183594 -0.27734375 38.72265625 C-0.99265259 37.79078491 -0.99265259 37.79078491 -1.72241211 36.84008789 C-4.25892936 33.18678567 -5.28717697 30.85148623 -4.86328125 26.3671875 C-4.78013672 25.47773438 -4.69699219 24.58828125 -4.61132812 23.671875 C-4.51271484 22.74890625 -4.41410156 21.8259375 -4.3125 20.875 C-4.23322266 19.97523438 -4.15394531 19.07546875 -4.07226562 18.1484375 C-3.43946827 11.81135891 -1.99623998 6.03609273 0 0 Z " fill="#FDF056" transform="translate(44,370)"/>
<path d="M0 0 C5.99118425 3.6590461 10.97458899 8.67928553 15.89453125 13.62890625 C16.60856613 14.34102768 17.32260101 15.05314911 18.05827332 15.78684998 C19.5539197 17.28114477 21.0470813 18.77793044 22.5378418 20.27709961 C24.81662603 22.56664552 27.10595506 24.8452577 29.39648438 27.12304688 C30.85480876 28.5826921 32.31251302 30.04295721 33.76953125 31.50390625 C34.79141289 32.51971519 34.79141289 32.51971519 35.8339386 33.55604553 C43.91643221 41.71882861 43.91643221 41.71882861 44.07232666 45.97431946 C43.64058306 51.87744727 41.73101487 57.03102203 39.47265625 62.453125 C39.12367783 63.3163739 38.7746994 64.1796228 38.41514587 65.06903076 C37.30814937 67.80045573 36.18568446 70.52519747 35.0625 73.25 C34.31210935 75.09332629 33.5627508 76.93707308 32.81445312 78.78125 C31.44264087 82.15791853 30.06509239 85.53210599 28.67993164 88.90332031 C28.38716339 89.61879028 28.09439514 90.33426025 27.79275513 91.07141113 C27.12848593 92.68742362 26.45313414 94.29887454 25.77514648 95.90917969 C24.67990876 98.8633894 24.80824636 100.05566749 26 103 C28.18402347 105.5027446 30.53971131 107.7709656 33 110 C29.9802379 113.21329255 26.4719531 115.17056589 22.625 117.25 C21.965 117.62640625 21.305 118.0028125 20.625 118.390625 C17.82037512 119.91026238 15.57042784 120.99074527 12.3515625 121.04296875 C9.12539561 119.61209407 7.18552192 117.60375566 4.75 115.0625 C3.87859375 114.16660156 3.0071875 113.27070313 2.109375 112.34765625 C-1.21786488 108.6445615 -1.2728848 106.26435919 -1.21200562 101.44763184 C-0.87596762 97.56803033 0.40379341 94.27699022 1.88671875 90.703125 C2.33504814 89.569888 2.33504814 89.569888 2.79243469 88.41375732 C3.74316344 86.01982779 4.71465251 83.63501421 5.6875 81.25 C6.3210912 79.66723825 6.95326366 78.08390781 7.58398438 76.5 C8.80754261 73.43148092 10.03832331 70.36602761 11.27490234 67.30273438 C13.58603716 61.56175408 15.80200862 55.78520053 18 50 C17.0713916 49.08186523 16.1427832 48.16373047 15.18603516 47.21777344 C11.7406929 43.80864324 8.30198355 40.39288859 4.86523438 36.97509766 C3.37712683 35.4970449 1.88722881 34.02079252 0.39550781 32.54638672 C-1.74888283 30.42626681 -3.88674198 28.29974652 -6.0234375 26.171875 C-6.69120209 25.51443298 -7.35896667 24.85699097 -8.04696655 24.17962646 C-8.6674588 23.55928528 -9.28795105 22.93894409 -9.92724609 22.29980469 C-10.47351654 21.75797546 -11.01978699 21.21614624 -11.58261108 20.65789795 C-14.41515389 17.34471632 -15.01564706 15.49288251 -14.875 11.0625 C-14.24977693 7.11256128 -12.90761457 4.82453987 -10 2 C-6.7107893 -0.30244749 -3.94876239 -0.60750191 0 0 Z " fill="#9856BB" transform="translate(338,367)"/>
<path d="M0 0 C5.27423678 4.4085742 10.19430011 9.0511401 15.04663086 13.91723633 C16.20396225 15.07193924 16.20396225 15.07193924 17.38467407 16.24996948 C19.91390521 18.77482721 22.43949432 21.30329151 24.96484375 23.83203125 C26.72589241 25.59240599 28.48708948 27.35263229 30.24842834 29.11271667 C33.92741903 32.79023687 37.60460398 36.46955062 41.28051758 40.15014648 C45.06208564 43.93629549 48.84581105 47.7202615 52.63208008 51.50170898 C57.20709985 56.07095273 61.77969455 60.6426072 66.35019112 65.21637535 C68.09387261 66.96072591 69.8383027 68.70432849 71.58347893 70.44718361 C74.01111614 72.87229808 76.4355534 75.30056563 78.85913086 77.72973633 C79.58684189 78.45542313 80.31455292 79.18110992 81.0643158 79.92878723 C81.71891785 80.58620911 82.3735199 81.24363098 83.04795837 81.92097473 C83.62143981 82.49483319 84.19492125 83.06869165 84.78578091 83.65993977 C86 85 86 85 86 86 C56.44935895 86.61576993 56.44935895 86.61576993 42.57666016 83.56103516 C39.40615485 82.87069773 36.2248043 82.2414946 33.04296875 81.60546875 C30.56973652 81.09392273 28.0970775 80.5795975 25.625 80.0625 C24.440271 79.82192871 23.25554199 79.58135742 22.03491211 79.33349609 C20.92253174 79.09066895 19.81015137 78.8478418 18.6640625 78.59765625 C17.66842285 78.38633057 16.6727832 78.17500488 15.64697266 77.95727539 C12.47770783 76.81111349 11.06111342 75.65860861 9 73 C8.04272461 70.36889648 8.04272461 70.36889648 7.40234375 67.37109375 C7.1595166 66.26378906 6.91668945 65.15648437 6.66650391 64.015625 C6.42593262 62.83484375 6.18536133 61.6540625 5.9375 60.4375 C5.68145996 59.21675781 5.42541992 57.99601562 5.16162109 56.73828125 C4.42243569 53.16233657 3.70912807 49.5820059 3 46 C2.8148584 45.11199707 2.6297168 44.22399414 2.43896484 43.30908203 C-0.53450364 28.93385903 -0.31991293 14.62904406 0 0 Z " fill="#8340AE" transform="translate(354,72)"/>
<path d="M0 0 C25.14482108 -1.13437907 48.74295507 3.83072992 73 10 C72.67 10.66 72.34 11.32 72 12 C72.29562653 13.84803624 72.68194896 15.68183601 73.109375 17.50390625 C73.49778564 19.1902417 73.49778564 19.1902417 73.89404297 20.91064453 C74.17650879 22.11575684 74.45897461 23.32086914 74.75 24.5625 C75.311914 27.05032628 75.87181676 29.53860769 76.4296875 32.02734375 C77.49885294 36.78319836 77.49885294 36.78319836 78.58300781 41.53564453 C81.54567851 54.64204847 81.31443183 67.6245537 81 81 C75.89615128 76.72590602 71.11104916 72.25470797 66.41235352 67.54174805 C65.3281739 66.46019691 65.3281739 66.46019691 64.22209167 65.35679626 C61.85519001 62.99426441 59.49192731 60.62813153 57.12890625 58.26171875 C55.47995878 56.61344528 53.83086292 54.96532025 52.18162537 53.31733704 C48.73802703 49.87520868 45.29623356 46.43128849 41.85571289 42.98608398 C37.43476754 38.5594148 33.00931202 34.13728595 28.58252048 29.71646404 C25.18282334 26.32036849 21.78549673 22.92190965 18.38889885 19.52271461 C16.75686079 17.89000756 15.12407431 16.25804828 13.49054146 14.62683678 C11.21856872 12.35738684 8.9497976 10.08478537 6.68188477 7.8112793 C6.00092743 7.13234619 5.31997009 6.45341309 4.61837769 5.75390625 C0 1.11426759 0 1.11426759 0 0 Z " fill="#823FAE" transform="translate(108,323)"/>
<path d="M0 0 C4.82868962 4.02778702 9.38396573 8.23931635 13.8215332 12.69213867 C14.46307846 13.33193161 15.10462372 13.97172455 15.76560974 14.63090515 C17.86317134 16.72410278 19.95709814 18.82089227 22.05078125 20.91796875 C23.51557562 22.38208885 24.98051836 23.84606053 26.44560242 25.30989075 C29.50418077 28.36699982 32.56095548 31.42589787 35.61645508 34.48608398 C39.53499805 38.41034402 43.45804058 42.33007042 47.38242817 46.24848461 C50.40304687 49.26549416 53.42128523 52.28487594 56.43880272 55.30498695 C57.88497689 56.75182837 59.33189471 58.19792687 60.77956581 59.64327049 C62.79728439 61.65845459 64.81177834 63.67680753 66.82543945 65.69604492 C67.42440033 66.29298157 68.02336121 66.88991821 68.64047241 67.50494385 C75.28697057 74.18564469 75.28697057 74.18564469 75.4375 79.3125 C75.3744412 82.82659505 74.8619303 84.77477223 72.625 87.5 C69.13725507 90.82166184 66.58007209 91.78507724 61.66119385 91.71479797 C58.02149906 90.73717417 56.26421912 88.91110383 53.54589844 86.31323242 C53.02958736 85.82387553 52.51327629 85.33451864 51.98131943 84.83033276 C50.30721837 83.23372768 48.65165062 81.61980223 47 80 C46.45549698 79.46813206 45.91099396 78.93626411 45.34999084 78.38827896 C41.2478099 74.37043982 37.19194702 70.30729129 33.140625 66.23828125 C31.85762252 64.95340783 30.57439474 63.66875935 29.29095459 62.38432312 C25.95487606 59.04447259 22.62181444 55.70162779 19.28942871 52.35809326 C15.87189635 48.93023078 12.4514411 45.50528745 9.03125 42.08007812 C2.35134535 35.38953025 -4.32536741 28.69580711 -11 22 C-9.54555549 18.89399665 -8.08577648 15.79052979 -6.625 12.6875 C-6.2125 11.80642578 -5.8 10.92535156 -5.375 10.01757812 C-4.97539062 9.17001953 -4.57578125 8.32246094 -4.1640625 7.44921875 C-3.61419678 6.27879028 -3.61419678 6.27879028 -3.05322266 5.0847168 C-2 3 -2 3 0 0 Z " fill="#9856BB" transform="translate(31,146)"/>
<path d="M0 0 C1.71658325 1.07402039 1.71658325 1.07402039 3.39892578 2.6315918 C4.43681244 3.59166641 4.43681244 3.59166641 5.4956665 4.57113647 C11.21892882 10.12192398 16.86571902 15.74579609 22.4921875 21.39453125 C23.8882182 22.79243035 25.28447231 24.19010636 26.68093872 25.58757019 C30.33523198 29.24565917 33.98651179 32.90674135 37.637146 36.56848145 C41.36304104 40.3046401 45.09179736 44.03794077 48.8203125 47.77148438 C55.35632247 54.31703996 61.88987623 60.865039 68.42160034 67.41487122 C69.94686388 68.94411539 71.47274485 70.47274485 73 72 C68.71 77.94 64.42 83.88 60 90 C56.76073786 88.38036893 55.24862481 87.49907573 52.83027649 85.08424377 C52.22881805 84.48842499 51.62735962 83.8926062 51.00767517 83.2787323 C50.35972488 82.62673355 49.7117746 81.9747348 49.04418945 81.30297852 C48.00696747 80.27101349 48.00696747 80.27101349 46.9487915 79.21820068 C44.66523152 76.94344121 42.3890624 74.66144612 40.11328125 72.37890625 C38.52984903 70.796821 36.94611999 69.21503276 35.36210632 67.63352966 C32.04437329 64.3187455 28.73028578 61.00036969 25.41870117 57.67944336 C21.16821633 53.41755493 16.90880473 49.16471925 12.6466341 44.91452122 C9.37544866 41.65055278 6.10902946 38.38184812 2.84404564 35.11167717 C1.27498494 33.54128002 -0.2955691 31.97237349 -1.86762047 30.40497017 C-4.06074023 28.2169139 -6.24737227 26.02257588 -8.43237305 23.82641602 C-9.08639603 23.1764415 -9.74041901 22.52646698 -10.41426086 21.85679626 C-11.00725983 21.25815765 -11.60025879 20.65951904 -12.21122742 20.04273987 C-12.98741944 19.26541677 -12.98741944 19.26541677 -13.77929211 18.47239017 C-15.78499257 16.05315976 -16.02694611 13.76197601 -16.375 10.6875 C-15.87765929 5.79698299 -14.42915508 4.42915508 -11 1 C-7.40045041 -0.79977479 -3.91455099 -0.66169101 0 0 Z " fill="#BA80E2" transform="translate(380,327)"/>
<path d="M0 0 C4.91436891 2.90779631 8.61609455 6.42984953 12.53515625 10.55078125 C13.76830157 11.81892231 15.00204307 13.08648385 16.23632812 14.35351562 C18.16080329 16.34015818 20.08019366 18.3310455 21.98950195 20.33227539 C23.84554021 22.27273292 25.71977091 24.19399178 27.59765625 26.11328125 C28.16549332 26.71836014 28.73333038 27.32343903 29.31837463 27.94685364 C31.10502662 29.8254493 31.10502662 29.8254493 34 32 C36.58769614 32.17284679 36.58769614 32.17284679 39 31 C39.92893066 30.65960693 40.85786133 30.31921387 41.81494141 29.96850586 C43.31806885 29.34794312 43.31806885 29.34794312 44.8515625 28.71484375 C45.94984375 28.26689453 47.048125 27.81894531 48.1796875 27.35742188 C50.48461691 26.40748781 52.78930288 25.45696283 55.09375 24.50585938 C56.18945312 24.05919922 57.28515625 23.61253906 58.4140625 23.15234375 C59.4138916 22.73976318 60.4137207 22.32718262 61.44384766 21.90209961 C64 21 64 21 67 21 C66.70143294 27.21019487 65.71832213 33.30008555 64.4375 39.375 C64.31793945 40.06464844 64.19837891 40.75429688 64.07519531 41.46484375 C63.43681812 44.27095767 62.71573563 46.45644149 60.37719727 48.23242188 C58.28960004 49.3019502 56.19151169 50.16479925 54 51 C52.53233688 51.64013182 51.06489043 52.28076063 49.59765625 52.921875 C48.08757782 53.53530357 46.57584052 54.14466379 45.0625 54.75 C43.94198242 55.22373047 43.94198242 55.22373047 42.79882812 55.70703125 C37.62603613 57.76900701 32.52076147 59.57290175 27 58 C23.78817416 55.8840599 21.17828414 53.29970755 18.50683594 50.54400635 C16.84106853 48.83714804 15.13923851 47.17226273 13.4296875 45.50927734 C10.10844084 42.27100916 6.81788711 39.00358692 3.53808594 35.72338867 C1.48130349 33.66882365 -0.58339807 31.62243379 -2.6484375 29.57617188 C-3.96402929 28.26350936 -5.27915102 26.95037554 -6.59375 25.63671875 C-7.20827026 25.029384 -7.82279053 24.42204926 -8.45593262 23.79631042 C-9.0241272 23.22503922 -9.59232178 22.65376801 -10.17773438 22.06518555 C-10.92524963 21.31980782 -10.92524963 21.31980782 -11.68786621 20.55937195 C-14.68827999 16.99360669 -15.49093462 13.72386542 -15.39453125 9.03515625 C-14.68647817 5.38272403 -12.62465368 3.56216192 -10 1 C-6.83350487 -0.58324757 -3.42541806 -0.64374236 0 0 Z " fill="#BA80E2" transform="translate(420,286)"/>
<path d="M0 0 C12.96824078 -0.82193075 25.32553121 1.51760742 38 4 C39.11616699 4.20898926 40.23233398 4.41797852 41.38232422 4.63330078 C44.70411948 5.27109694 48.00734121 5.96890001 51.3125 6.6875 C52.85139893 6.97971436 52.85139893 6.97971436 54.42138672 7.27783203 C61.21575847 8.86207167 61.21575847 8.86207167 63.21801758 11.76733398 C64.06633909 14.16813573 64.54700417 16.49424546 65 19 C65.50694727 21.02593952 66.01896457 23.05061488 66.53515625 25.07421875 C67.05096788 27.27708842 67.55987415 29.48158439 68.0625 31.6875 C68.32562988 32.84217773 68.58875977 33.99685547 68.85986328 35.18652344 C71.71649764 47.93095504 73.35879979 59.88387435 73 73 C68.15939722 68.96297006 63.5949558 64.73956066 59.14672852 60.27612305 C58.50197067 59.63311752 57.85721283 58.990112 57.19291687 58.32762146 C55.08574278 56.22481031 52.98220182 54.11840877 50.87890625 52.01171875 C49.40932069 50.54280733 47.93958674 49.07404433 46.4697113 47.60542297 C43.40274076 44.53992143 40.33757341 41.47263134 37.27368164 38.40405273 C33.33701057 34.46165456 29.39582656 30.52380315 25.45330906 26.58725262 C22.42419697 23.56174197 19.39745564 20.53386868 16.37144279 17.50525856 C14.91803423 16.05118113 13.46387755 14.59785107 12.00897408 13.14526939 C9.9860643 11.12488254 7.96635935 9.10134711 5.94750977 7.0769043 C5.34135834 6.4727771 4.73520691 5.8686499 4.11068726 5.24621582 C0 1.11426842 0 1.11426842 0 0 Z " fill="#8141AF" transform="translate(273,166)"/>
<path d="M0 0 C4.84060278 4.03702994 9.4050442 8.26043934 13.85327148 12.72387695 C14.82040825 13.68838524 14.82040825 13.68838524 15.80708313 14.67237854 C17.91425722 16.77518969 20.01779818 18.88159123 22.12109375 20.98828125 C23.59067931 22.45719267 25.06041326 23.92595567 26.5302887 25.39457703 C29.59725924 28.46007857 32.66242659 31.52736866 35.72631836 34.59594727 C39.66298943 38.53834544 43.60417344 42.47619685 47.54669094 46.41274738 C50.57580303 49.43825803 53.60254436 52.46613132 56.62855721 55.49474144 C58.08196577 56.94881887 59.53612245 58.40214893 60.99102592 59.85473061 C63.0139357 61.87511746 65.03364065 63.89865289 67.05249023 65.9230957 C67.65864166 66.5272229 68.26479309 67.1313501 68.88931274 67.75378418 C73 71.88573158 73 71.88573158 73 73 C64.90352765 73.20911419 57.23369849 72.71475453 49.25 71.375 C48.19031006 71.20186279 47.13062012 71.02872559 46.03881836 70.8503418 C18.18318959 66.0915948 18.18318959 66.0915948 10 62 C8.72728568 58.47241519 7.98238671 54.77284522 7.125 51.125 C6.73127197 49.46392212 6.73127197 49.46392212 6.32958984 47.76928711 C4.41552837 39.41590138 2.89580083 31.03646849 1.625 22.5625 C1.45758301 21.45729004 1.29016602 20.35208008 1.11767578 19.21337891 C0.2051731 12.7571032 -0.17171541 6.51500591 0 0 Z " fill="#8240AE" transform="translate(197,242)"/>
<path d="M0 0 C1.89112854 1.32304382 1.89112854 1.32304382 3.77172852 3.0534668 C4.46630157 3.68940765 5.16087463 4.32534851 5.87649536 4.9805603 C9.28417095 8.22123858 12.64457249 11.50183834 15.96484375 14.83203125 C16.68362198 15.54985275 17.40240021 16.26767426 18.14295959 17.00724792 C19.6457693 18.50938252 21.14733866 20.01275897 22.64770508 21.51733398 C24.9521476 23.82718196 27.26194389 26.13158091 29.57226562 28.43554688 C31.0367795 29.90072072 32.50098358 31.36620429 33.96484375 32.83203125 C34.65642075 33.52158401 35.34799774 34.21113678 36.06053162 34.92158508 C36.69531937 35.55952499 37.33010712 36.1974649 37.98413086 36.85473633 C38.54402206 37.41542313 39.10391327 37.97610992 39.68077087 38.55378723 C42.49925824 41.64357075 42.38784042 44.65778787 42.35546875 48.671875 C41.75147582 52.62769681 39.89542195 54.30658423 37 57 C33.10093529 58.29968824 31.12748316 58.65515606 27 58 C21.19630954 53.68939964 16.20998538 48.25403746 11.203125 43.0546875 C10.7151796 42.54966705 10.22723419 42.04464661 9.72450256 41.52432251 C7.71672494 39.44396467 5.70949436 37.36416297 3.72998047 35.25683594 C2.25779729 33.69403497 0.76440752 32.15443837 -0.734375 30.6171875 C-2.03713379 29.24989502 -2.03713379 29.24989502 -3.36621094 27.85498047 C-5.89441166 25.6688146 -5.89441166 25.6688146 -9.15576172 26.16430664 C-10.56365967 26.57797485 -10.56365967 26.57797485 -12 27 C-12.91523438 27.24878906 -13.83046875 27.49757812 -14.7734375 27.75390625 C-15.63195312 28.02074219 -16.49046875 28.28757813 -17.375 28.5625 C-18.24898437 28.83191406 -19.12296875 29.10132813 -20.0234375 29.37890625 C-20.67570312 29.58386719 -21.32796875 29.78882813 -22 30 C-22.88390942 26.39376253 -23.00321864 23.58098555 -22.44140625 19.91796875 C-22.30283203 18.98662109 -22.16425781 18.05527344 -22.02148438 17.09570312 C-21.87001953 16.13599609 -21.71855469 15.17628906 -21.5625 14.1875 C-21.41490234 13.20845703 -21.26730469 12.22941406 -21.11523438 11.22070312 C-20.75107276 8.81253759 -20.37910187 6.40585099 -20 4 C-6.61779939 -1.60301484 -6.61779939 -1.60301484 0 0 Z " fill="#9856BB" transform="translate(23,220)"/>
<path d="M0 0 C1.10794922 0.75796875 1.10794922 0.75796875 2.23828125 1.53125 C9.23537494 6.01223503 14.64436514 8.6428898 23 7 C27.5699733 5.4024295 31.17964645 2.93033712 35 0 C35.08636719 0.88816406 35.17273438 1.77632813 35.26171875 2.69140625 C36.40663071 13.10065172 38.46365282 23.16691071 40.7578125 33.37890625 C42.36479206 40.55161181 43.70832226 47.76450438 45 55 C37.09684015 54.43548858 29.64501438 52.5778551 22.02783203 50.51318359 C20.09700279 50.0245485 18.13978295 49.64395027 16.18359375 49.26953125 C14.45302734 48.88861328 14.45302734 48.88861328 12.6875 48.5 C11.66011719 48.3040625 10.63273437 48.108125 9.57421875 47.90625 C3.73678116 43.58353445 3.90434913 33.67174061 2.83203125 26.9140625 C2.48562567 24.48530185 2.14583059 22.05558961 1.8125 19.625 C1.63525391 18.39394531 1.45800781 17.16289063 1.27539062 15.89453125 C0.52444494 10.54223111 -0.09988131 5.41387147 0 0 Z " fill="#FCEF57" transform="translate(319,92)"/>
<path d="M0 0 C0 1.82976485 -0.02798157 3.66015785 -0.10546875 5.48828125 C-0.26790636 11.08077611 -0.36963546 15.28251036 3 20 C6.49574959 23.50530081 9.58964914 25.91279483 14.69921875 26.09765625 C15.68535156 26.08605469 16.67148438 26.07445312 17.6875 26.0625 C18.68136719 26.05347656 19.67523438 26.04445313 20.69921875 26.03515625 C21.45847656 26.02355469 22.21773438 26.01195312 23 26 C19.99769615 30.21362941 16.60616816 32.88267661 12.25 35.5625 C11.62383789 35.95018555 10.99767578 36.33787109 10.35253906 36.73730469 C9.11957922 37.4947217 7.88367049 38.24736426 6.64453125 38.99462891 C5.29369526 39.82045174 3.97056867 40.69143471 2.65625 41.57421875 C0.09620453 43.15326319 -2.05704704 44.14384962 -5.09008789 43.68115234 C-12.44661124 41.39747941 -19.27468489 38.2542306 -26.1875 34.875 C-27.37190674 34.30040039 -28.55631348 33.72580078 -29.77661133 33.13378906 C-38.43713522 28.8826579 -47.04591637 24.48925034 -55 19 C-55 18.67 -55 18.34 -55 18 C-53.61941406 17.94392578 -53.61941406 17.94392578 -52.2109375 17.88671875 C-32.71923798 16.87442071 -15.29708346 12.53025131 0 0 Z " fill="#1D8CF1" transform="translate(165,454)"/>
</svg>
