<?xml version="1.0" encoding="UTF-8"?>
<svg version="1.1" xmlns="http://www.w3.org/2000/svg" width="512" height="512">
<path d="M0 0 C21.67768898 0.02188929 39.39001724 9.77024242 54.9375 24.3125 C55.91203125 25.18455078 55.91203125 25.18455078 56.90625 26.07421875 C65.53645429 34.15485814 72.41571606 44.38750221 79.125 54.0625 C79.60678711 54.75400146 80.08857422 55.44550293 80.58496094 56.15795898 C83.9375 61.065806 83.9375 61.065806 83.9375 63.3125 C86.99240375 60.353062 89.8050901 57.30217295 92.5625 54.0625 C95.57831125 50.6271962 98.72352575 47.76609835 102.3125 44.9375 C107.29262827 40.99489846 111.47257102 36.66703415 115.6484375 31.890625 C117.98525208 29.25871779 120.43915573 26.79046626 122.9375 24.3125 C123.44152344 23.75046875 123.94554687 23.1884375 124.46484375 22.609375 C135.98376676 9.9736589 154.31971576 1.58240432 171.19433594 0.00878906 C174.55235586 -0.12362026 177.8895553 -0.1557131 181.25 -0.125 C183.03047729 -0.11146484 183.03047729 -0.11146484 184.84692383 -0.09765625 C204.35371868 0.28684563 221.36981052 7.3694599 235.9375 20.3125 C236.88496094 21.08207031 236.88496094 21.08207031 237.8515625 21.8671875 C245.10430589 27.77801361 250.79271461 35.21659228 256.4375 42.625 C256.99848389 43.35904053 257.55946777 44.09308105 258.13745117 44.84936523 C262.40145726 50.48348183 266.32693443 56.23362051 269.9375 62.3125 C272.56521939 59.69438836 275.18146051 57.06747897 277.76953125 54.41015625 C286.71139729 45.28088584 286.71139729 45.28088584 291.1875 42.1875 C295.22525705 39.34858215 297.89436011 35.76895181 300.89453125 31.88671875 C313.82966287 15.58795826 333.18103857 3.18953926 353.9375 0.3125 C359.27694718 -0.07019857 364.59520303 0.05675174 369.9375 0.3125 C372.0625 4.9375 372.0625 4.9375 370.9375 8.3125 C367.80886242 9.87681879 364.37908671 9.84404002 360.9375 10.1875 C354.29288326 10.89829664 348.27386798 12.09980007 341.9375 14.3125 C341.6075 17.6125 341.2775 20.9125 340.9375 24.3125 C342.1440625 24.68375 342.1440625 24.68375 343.375 25.0625 C345.9375 26.3125 345.9375 26.3125 346.8125 28.25 C346.9375 30.3125 346.9375 30.3125 345.9375 33.3125 C344.2875 33.6425 342.6375 33.9725 340.9375 34.3125 C341.2675 70.2825 341.5975 106.2525 341.9375 143.3125 C349.72830251 145.43726432 356.39852826 146.8857212 364.25585938 147.484375 C366.16129981 147.66403575 368.05296253 147.97858417 369.9375 148.3125 C371.9375 151.3125 371.9375 151.3125 371.625 153.9375 C370.9375 156.3125 370.9375 156.3125 369.9375 157.3125 C349.71429883 159.19301108 332.12810459 151.87721756 315.9375 140.3125 C316.2675 149.5525 316.5975 158.7925 316.9375 168.3125 C329.7891279 171.5927419 329.7891279 171.5927419 342.93359375 172.94140625 C343.92552734 173.12509766 343.92552734 173.12509766 344.9375 173.3125 C346.9375 176.3125 346.9375 176.3125 346.625 178.9375 C345.9375 181.3125 345.9375 181.3125 344.9375 182.3125 C326.04175047 184.06957427 307.28498819 177.92397927 292.4375 166.25 C290.92579576 164.95099787 289.42498049 163.63917179 287.9375 162.3125 C287.23238281 161.72597656 286.52726562 161.13945312 285.80078125 160.53515625 C272.65012667 149.4886064 262.92433314 134.79128673 253.9375 120.3125 C250.7153752 121.69941459 248.90395599 123.23686673 246.6875 125.9375 C241.89778875 131.58506998 236.78894127 136.78860664 231.125 141.5625 C227.68213945 144.51448395 224.6469484 147.75289607 221.625 151.125 C214.78136203 158.73806933 207.5827319 165.75935834 198.9375 171.3125 C200.63928845 173.01428845 202.91788649 172.85326974 205.20483398 173.21166992 C240.3422451 178.73298865 274.32909958 196.40148967 296.9375 224.3125 C297.69675781 225.23417969 298.45601563 226.15585938 299.23828125 227.10546875 C320.59659398 253.5655306 332.40385072 285.89912656 332.25 319.9375 C332.24436035 321.25419678 332.2387207 322.57089355 332.23291016 323.92749023 C331.6953279 367.34124964 313.70958725 404.91180047 283.12890625 435.2265625 C281.07525687 437.18137314 278.97062834 439.0370564 276.8125 440.875 C274.16782913 443.14483563 271.82877308 445.47748472 269.5625 448.125 C248.58572903 472.58222176 219.55426673 488.33335714 187.9375 494.3125 C187.0312085 494.48765137 186.12491699 494.66280273 185.19116211 494.84326172 C175.94052571 496.4596538 166.86137451 496.71289551 157.5 496.6875 C156.70858612 496.68662384 155.91717224 496.68574768 155.10177612 496.68484497 C142.03288578 496.63726186 129.60606873 495.75232662 116.9375 492.3125 C116.08800781 492.0870752 115.23851562 491.86165039 114.36328125 491.62939453 C88.93648992 484.63132584 67.88158232 471.31491741 48.9375 453.3125 C48.30328125 452.74273437 47.6690625 452.17296875 47.015625 451.5859375 C25.72820412 431.81904668 14.67271509 402.04395181 8.9375 374.3125 C8.69128906 373.13558594 8.44507813 371.95867187 8.19140625 370.74609375 C2.56619223 337.26637169 8.83515933 303.86702121 24.9375 274.3125 C25.50339844 273.25417969 26.06929687 272.19585937 26.65234375 271.10546875 C35.30749441 255.56692768 47.30336048 241.10904451 61.5 230.375 C66.02493073 226.54621246 69.69267986 221.87650479 73.375 217.25 C88.92160046 199.42828728 110.59121776 188.44133789 131.9375 179.3125 C131.21046875 179.03277344 130.4834375 178.75304687 129.734375 178.46484375 C115.86313425 172.93413109 105.37833304 165.8059317 94.9375 155.3125 C94.45925781 154.83683594 93.98101562 154.36117187 93.48828125 153.87109375 C85.71381201 146.05307006 79.49213896 137.36943107 73.29785156 128.29052734 C71.21906543 125.26785591 69.07893051 122.29103516 66.9375 119.3125 C66.41542969 119.99054688 65.89335937 120.66859375 65.35546875 121.3671875 C59.10626334 129.26898488 52.40238476 136.13493612 44.3671875 142.27734375 C41.76220147 144.45933366 39.87802413 146.74367955 37.8125 149.4375 C23.62214567 167.01764243 4.50347154 179.16886034 -18.0625 182.3125 C-22.74673258 182.65240952 -27.402536 182.98385075 -32.0625 182.3125 C-34.0625 179.3125 -34.0625 179.3125 -33.75 176.6875 C-33.0625 174.3125 -33.0625 174.3125 -32.0625 173.3125 C-30.60012995 173.03964611 -29.12738967 172.82181796 -27.65234375 172.62890625 C-26.29012695 172.44424805 -26.29012695 172.44424805 -24.90039062 172.25585938 C-22.99418135 172.00554907 -21.08793248 171.75554001 -19.18164062 171.50585938 C-13.68453944 170.7602933 -8.41664284 169.76928091 -3.0625 168.3125 C-3.0625 164.6825 -3.0625 161.0525 -3.0625 157.3125 C-4.7125 156.9825 -6.3625 156.6525 -8.0625 156.3125 C-8.6875 154 -8.6875 154 -9.0625 151.3125 C-8.4025 150.3225 -7.7425 149.3325 -7.0625 148.3125 C-5.7425 148.3125 -4.4225 148.3125 -3.0625 148.3125 C-3.5575 94.3575 -3.5575 94.3575 -4.0625 39.3125 C-16.51016195 35.88002536 -16.51016195 35.88002536 -28.76953125 34.48828125 C-31.0625 34.3125 -31.0625 34.3125 -33.0625 33.3125 C-33.9375 31 -33.9375 31 -34.0625 28.3125 C-32.49609375 26.14453125 -32.49609375 26.14453125 -30.0625 24.3125 C-11.70091499 22.48774621 6.43145927 30.95104233 20.9375 41.3125 C20.9375 32.4025 20.9375 23.4925 20.9375 14.3125 C12.5523365 11.90564751 5.09185031 9.88712289 -3.671875 9.68359375 C-6.0625 9.3125 -6.0625 9.3125 -7.90625 7.94921875 C-9.0625 6.3125 -9.0625 6.3125 -8.8125 3.6875 C-7.35858021 -0.91657935 -4.26510451 0.03917489 0 0 Z M6.9375 44.3125 C6.9375 78.3025 6.9375 112.2925 6.9375 147.3125 C17.00416667 146.0125 17.00416667 146.0125 21.9375 143.3125 C22.14634991 131.97724872 22.30610555 120.64245759 22.40380955 109.30567169 C22.45071206 104.04097879 22.51428944 98.77760536 22.61645508 93.51367188 C22.71449756 88.43016165 22.76810981 83.34791747 22.79139519 78.26353455 C22.80798069 76.32734753 22.84037105 74.39122719 22.88907051 72.45558167 C23.47064403 61.98135836 23.47064403 61.98135836 20.08493042 52.40209961 C16.06831541 48.68458582 11.87117606 46.77933803 6.9375 44.3125 Z M87.9375 88.3125 C86.92429687 89.83230469 86.92429687 89.83230469 85.890625 91.3828125 C84.98958333 92.734375 84.08854167 94.0859375 83.1875 95.4375 C82.7440625 96.10265625 82.300625 96.7678125 81.84375 97.453125 C81.40546875 98.11054687 80.9671875 98.76796875 80.515625 99.4453125 C80.08572266 100.10047852 79.65582031 100.75564453 79.21289062 101.43066406 C78.39564433 102.6365091 77.5423546 103.81913499 76.64648438 104.96777344 C75.31298638 106.63843037 75.31298638 106.63843037 73.9375 109.3125 C74.32490791 111.90287056 74.32490791 111.90287056 75.9375 114.3125 C76.52402344 115.32183594 77.11054688 116.33117187 77.71484375 117.37109375 C78.4279788 118.50178813 79.14844116 119.6278843 79.875 120.75 C80.266875 121.35618164 80.65875 121.96236328 81.0625 122.58691406 C89.13291596 134.85065744 98.5895981 148.25316029 110.9375 156.3125 C113.74129194 132.09288897 113.74129194 132.09288897 106.0625 110.4375 C104.58171832 108.86374465 103.06550769 107.36467448 101.48193359 105.89453125 C98.6060819 102.94866989 96.55625637 99.40978698 94.375 95.9375 C91.80726217 91.46035006 91.80726217 91.46035006 87.9375 88.3125 Z M273.9375 88.3125 C271.14093361 91.88329479 268.5642814 95.61590217 265.9375 99.3125 C265.31101562 100.14523438 264.68453125 100.97796875 264.0390625 101.8359375 C263.48992187 102.59132813 262.94078125 103.34671875 262.375 104.125 C261.87871094 104.79144531 261.38242187 105.45789063 260.87109375 106.14453125 C259.46678261 109.40558851 259.86384305 110.90393852 260.9375 114.3125 C262.85090221 117.65552996 265.05691133 120.75561903 267.3125 123.875 C267.94373779 124.76034424 268.57497559 125.64568848 269.2253418 126.55786133 C274.44790478 133.80354965 279.92944985 140.70644797 285.9375 147.3125 C286.69417969 148.15167969 287.45085937 148.99085938 288.23046875 149.85546875 C292.07503352 153.91777878 295.9612882 157.11470375 300.71875 160.0703125 C301.69908203 160.68277832 302.67941406 161.29524414 303.68945312 161.92626953 C304.43130859 162.38372559 305.17316406 162.84118164 305.9375 163.3125 C308.43630018 142.6196466 308.43630018 142.6196466 302.30419922 123.94848633 C300.1771072 121.88053589 297.96587758 119.93466812 295.70458984 118.01513672 C292.21826832 114.65597586 289.71233337 110.52632503 287.0625 106.5 C286.54018799 105.72221191 286.01787598 104.94442383 285.47973633 104.14306641 C283.38532903 101.0206167 281.31145204 97.88559616 279.25683594 94.73681641 C278.44520996 93.5000415 278.44520996 93.5000415 277.6171875 92.23828125 C277.12718262 91.48587158 276.63717773 90.73346191 276.13232422 89.95825195 C275.73803223 89.41515381 275.34374023 88.87205566 274.9375 88.3125 C274.6075 88.3125 274.2775 88.3125 273.9375 88.3125 Z M119.9375 130.3125 C119.9375 141.2025 119.9375 152.0925 119.9375 163.3125 C131.86927704 169.27838852 139.14704685 171.89133854 151.9375 173.3125 C151.9375 166.3825 151.9375 159.4525 151.9375 152.3125 C148.3178125 150.3634375 148.3178125 150.3634375 144.625 148.375 C137.34418618 144.35712984 131.19869904 139.79760402 124.9375 134.3125 C123.2875 132.9925 121.6375 131.6725 119.9375 130.3125 Z M11.8125 155.3125 C10.90242188 155.498125 9.99234375 155.68375 9.0546875 155.875 C8.35601562 156.019375 7.65734375 156.16375 6.9375 156.3125 C6.9375 158.6225 6.9375 160.9325 6.9375 163.3125 C11.74783104 160.76585415 15.26192148 158.32222202 18.9375 154.3125 C16.46074269 154.3125 14.23890305 154.8147763 11.8125 155.3125 Z M160.9375 155.3125 C160.9375 161.2525 160.9375 167.1925 160.9375 173.3125 C170.7238301 172.22512999 178.9551058 170.47627833 187.9375 166.3125 C188.88496094 165.88839844 189.83242188 165.46429688 190.80859375 165.02734375 C191.51113281 164.46144531 192.21367187 163.89554688 192.9375 163.3125 C193.35496608 160.18614791 193.35496608 160.18614791 192.9375 157.3125 C192.28789307 157.28744385 191.63828613 157.2623877 190.96899414 157.23657227 C187.97918912 157.11936149 184.98960465 156.99721081 182 156.875 C180.97841797 156.83568359 179.95683594 156.79636719 178.90429688 156.75585938 C172.87159791 156.50529999 166.929795 156.05606945 160.9375 155.3125 Z M40.9375 265.3125 C20.26489076 295.57502862 11.33106137 335.03373298 17.45874023 371.21459961 C22.4230286 397.44582285 33.51769044 420.14054817 50.9375 440.3125 C51.90623047 441.48232422 51.90623047 441.48232422 52.89453125 442.67578125 C57.98263072 448.67580079 63.71481393 453.52120315 69.9375 458.3125 C70.79085937 458.98152344 71.64421875 459.65054688 72.5234375 460.33984375 C101.97431967 482.67121837 138.99520756 492.07701132 175.60302734 487.54321289 C198.38373306 484.24844535 218.75365378 475.85706727 237.9375 463.3125 C233.91646006 461.97215335 231.24116867 463.29721633 227.375 464.5625 C189.38868516 476.06925958 145.93521813 472.69371074 110.55249023 454.43237305 C76.10300038 435.93769245 51.41946454 406.78505138 39.9375 369.3125 C35.23884324 353.2023804 32.5497112 337.39554876 32.625 320.5625 C32.62991455 319.25063721 32.6348291 317.93877441 32.63989258 316.5871582 C32.82061208 301.56149041 35.34587815 288.16726904 39.8515625 273.88671875 C40.72185236 271.0222755 41.42494631 268.25683621 41.9375 265.3125 C41.6075 265.3125 41.2775 265.3125 40.9375 265.3125 Z " fill="#030605" transform="translate(87.0625,7.6875)"/>
<path d="M0 0 C2.73839999 2.20838709 5.39477127 4.48425485 8.03515625 6.80859375 C8.8653125 7.50597656 9.69546875 8.20335937 10.55078125 8.921875 C38.61921024 33.06248924 52.8592447 68.37826663 56.72265625 104.55859375 C57.53834733 115.84232037 56.9156302 126.6567023 55.03515625 137.80859375 C54.91688477 138.53852539 54.79861328 139.26845703 54.67675781 140.02050781 C50.31493841 166.1137328 37.98491986 190.23603491 20.046875 209.60546875 C17.90433186 211.89265026 17.90433186 211.89265026 15.66015625 214.87109375 C0.98588022 231.2923074 -22.45687729 237.55706464 -43.95083618 238.93600464 C-49.10044303 239.16749286 -54.24829659 239.19757564 -59.40234375 239.18359375 C-60.19375763 239.18271759 -60.98517151 239.18184143 -61.80056763 239.18093872 C-103.23329887 239.03008443 -140.84374097 223.44707335 -170.12255859 194.01733398 C-197.05237322 166.0751504 -210.44904755 126.44807913 -210.27734375 88.05859375 C-210.2724292 86.74673096 -210.26751465 85.43486816 -210.26245117 84.08325195 C-210.14176545 74.0490075 -209.37026723 64.54997214 -206.96484375 54.80859375 C-206.7932373 54.09461426 -206.62163086 53.38063477 -206.44482422 52.64501953 C-199.85415307 26.01729454 -184.32449925 8.63375213 -161.23706055 -5.57177734 C-112.47009798 -34.6305574 -46.40864712 -34.30204353 0 0 Z " fill="#89FEDD" transform="translate(328.96484375,240.19140625)"/>
<path d="M0 0 C25.33093751 8.99563248 49.31249809 24.08477431 66.35742188 45.12744141 C67.11667969 46.04912109 67.8759375 46.97080078 68.65820312 47.92041016 C90.01651585 74.380472 101.8237726 106.71406796 101.66992188 140.75244141 C101.66428223 142.06913818 101.65864258 143.38583496 101.65283203 144.74243164 C101.11524977 188.15619104 83.12950912 225.72674187 52.54882812 256.04150391 C50.49517875 257.99631454 48.39055022 259.85199781 46.23242188 261.68994141 C43.58775101 263.95977703 41.24869496 266.29242612 38.98242188 268.93994141 C18.0056509 293.39716317 -11.0258114 309.14829855 -42.64257812 315.12744141 C-43.54886963 315.30259277 -44.45516113 315.47774414 -45.38891602 315.65820312 C-54.63955242 317.27459521 -63.71870361 317.52783692 -73.08007812 317.50244141 C-73.871492 317.50156525 -74.66290588 317.50068909 -75.478302 317.49978638 C-88.54719235 317.45220327 -100.97400939 316.56726803 -113.64257812 313.12744141 C-114.49207031 312.9020166 -115.3415625 312.6765918 -116.21679688 312.44433594 C-141.6435882 305.44626725 -162.69849581 292.12985881 -181.64257812 274.12744141 C-182.27679688 273.55767578 -182.91101563 272.98791016 -183.56445312 272.40087891 C-204.85187401 252.63398809 -215.90736303 222.85889321 -221.64257812 195.12744141 C-222.01189453 193.36207031 -222.01189453 193.36207031 -222.38867188 191.56103516 C-228.01388589 158.0813131 -221.74491879 124.68196262 -205.64257812 95.12744141 C-205.07667969 94.06912109 -204.51078125 93.01080078 -203.92773438 91.92041016 C-195.27258371 76.38186908 -183.27671764 61.92398592 -169.08007812 51.18994141 C-164.55514739 47.36115386 -160.88739827 42.6914462 -157.20507812 38.06494141 C-144.46950042 23.46562062 -126.68010045 12.58621952 -109.20507812 4.62744141 C-108.47200439 4.28890137 -107.73893066 3.95036133 -106.98364258 3.6015625 C-101.15210799 1.04376732 -94.9579294 -1.01749123 -88.64257812 1.06494141 C-57.24738966 8.9272013 -32.66403798 -10.78540944 0 0 Z M-105.64257812 30.12744141 C-107.50462891 30.5625 -107.50462891 30.5625 -109.40429688 31.00634766 C-143.24344788 39.31832822 -172.82563474 59.10726596 -191.20507812 88.87744141 C-211.74235549 122.94388238 -220.48858511 162.44485119 -211.04052734 201.62402344 C-205.24287143 224.20231039 -194.86338946 243.50190583 -179.64257812 261.12744141 C-178.67384766 262.29726563 -178.67384766 262.29726563 -177.68554688 263.49072266 C-172.5974474 269.4907422 -166.86526419 274.33614456 -160.64257812 279.12744141 C-159.78921875 279.79646484 -158.93585938 280.46548828 -158.05664062 281.15478516 C-128.60575845 303.48615978 -91.58487056 312.89195273 -54.97705078 308.3581543 C-31.65455513 304.98502782 -10.99922573 296.37652567 8.35742188 283.12744141 C9.71287109 282.2321875 9.71287109 282.2321875 11.09570312 281.31884766 C42.48339886 260.18218785 59.76211112 225.32750359 66.98193359 189.1484375 C67.7875939 184.81212021 68.20601289 180.53146792 68.35742188 176.12744141 C68.39738281 175.15162109 68.43734375 174.17580078 68.47851562 173.17041016 C69.28401705 134.74325408 55.23752572 96.78288551 28.95532227 68.74853516 C8.33632545 47.39841475 -18.55009896 34.2947914 -47.64257812 29.12744141 C-48.57320068 28.95752686 -49.50382324 28.7876123 -50.46264648 28.61254883 C-58.66553985 27.2153972 -66.64135405 26.77733776 -74.95507812 26.81494141 C-76.22818848 26.81913086 -77.50129883 26.82332031 -78.81298828 26.82763672 C-88.14519906 26.93959943 -96.61559508 27.76684988 -105.64257812 30.12744141 Z " fill="#89FDDC" transform="translate(317.642578125,186.87255859375)"/>
<path d="M0 0 C4.57125022 2.33574847 7.93117586 5.56463563 10.03125 10.28515625 C11.23701772 16.16591811 9.94501992 20.41703756 6.7109375 25.36328125 C5.81571984 27.31840422 5.81571984 27.31840422 6.625 29.5078125 C8.89458972 33.9902522 11.40765702 38.32208889 13.9296875 42.66601562 C17.03125 48.07864499 17.03125 48.07864499 17.03125 50.28515625 C17.5905722 50.28071503 18.14989441 50.2762738 18.72616577 50.271698 C24.53323824 50.22754476 30.34026325 50.19732331 36.14746094 50.17529297 C38.31642594 50.16521836 40.48537731 50.15155827 42.65429688 50.13427734 C45.76696126 50.11009302 48.87944651 50.09868793 51.9921875 50.08984375 C52.966185 50.07952118 53.9401825 50.06919861 54.94369507 50.05856323 C56.29486923 50.05833664 56.29486923 50.05833664 57.67333984 50.05810547 C58.46831879 50.05366425 59.26329773 50.04922302 60.08236694 50.04464722 C62.03125 50.28515625 62.03125 50.28515625 64.03125 52.28515625 C63.47569444 56.84071181 63.47569444 56.84071181 62.03125 58.28515625 C59.87569798 58.1888868 57.72023172 58.08389182 55.56744385 57.93836975 C34.17847268 55.47327804 34.17847268 55.47327804 14.65820312 61.53857422 C9.82009706 67.0579297 7.22606071 73.37956257 5.05517578 80.328125 C4.03797494 83.26573506 2.75456008 85.61938884 1.12109375 88.25390625 C-0.74318389 91.31675338 -0.74318389 91.31675338 -0.578125 94.8046875 C0.21851563 96.03251953 0.21851563 96.03251953 1.03125 97.28515625 C1.76102802 98.64011077 2.48430455 99.99857565 3.203125 101.359375 C4.05911345 102.8990231 4.91863507 104.43671094 5.78125 105.97265625 C6.22645996 106.77123047 6.67166992 107.56980469 7.13037109 108.39257812 C9.99687258 113.51214771 12.94764428 118.56649079 16.0703125 123.53515625 C17.03125 125.28515625 17.03125 125.28515625 17.03125 127.28515625 C21.03429143 127.34032306 25.03366553 127.34242385 29.03686523 127.29736328 C30.39557934 127.2892997 31.75445671 127.29522142 33.11303711 127.31591797 C41.25634439 127.62559991 41.25634439 127.62559991 48.45654297 124.47265625 C50.16535595 122.4878281 51.58710675 120.4638434 53.03125 118.28515625 C56.50495107 116.54830572 60.23315812 116.82400513 64.03125 117.28515625 C68.35750381 119.48909687 71.67139223 122.01925952 74.03125 126.28515625 C74.83079594 131.6209016 74.70032031 135.89745486 72.34375 140.78515625 C68.46885619 144.97423064 65.79347687 146.4577514 60.09375 146.72265625 C55.35472205 146.5675095 52.62281711 145.52632657 49.03125 142.28515625 C48.62028076 141.42704346 48.20931152 140.56893066 47.78588867 139.68481445 C46.21274662 136.97783087 46.21274662 136.97783087 43.02856445 136.62573242 C41.8293335 136.61002197 40.63010254 136.59431152 39.39453125 136.578125 C38.09580078 136.54912109 36.79707031 136.52011719 35.45898438 136.49023438 C34.08724195 136.48384503 32.71549693 136.47799253 31.34375 136.47265625 C29.96024702 136.44951425 28.5767793 136.4241495 27.19335938 136.39648438 C23.80570135 136.33746594 20.41933997 136.30129152 17.03125 136.28515625 C16.62459106 137.36978149 16.62459106 137.36978149 16.2097168 138.47631836 C15.05339714 141.23236924 13.71615318 143.66823595 12.17578125 146.2265625 C11.63630859 147.13986328 11.09683594 148.05316406 10.54101562 148.99414062 C9.404719 150.90453115 8.26141669 152.81077121 7.11132812 154.71289062 C6.57572266 155.62490234 6.04011719 156.53691406 5.48828125 157.4765625 C4.99303955 158.30357666 4.49779785 159.13059082 3.98754883 159.98266602 C2.86488831 162.68570695 3.08867854 163.58184908 4.03125 166.28515625 C4.77027206 173.92171756 4.77027206 173.92171756 1.65625 177.72265625 C-2.1585559 181.44663343 -4.53735409 181.6778588 -9.703125 181.64453125 C-13.30715042 181.07285825 -14.86978646 179.12891331 -16.96875 176.28515625 C-16.96875 175.62515625 -16.96875 174.96515625 -16.96875 174.28515625 C-18.05816895 174.3322876 -19.14758789 174.37941895 -20.27001953 174.42797852 C-24.32841934 174.59140116 -28.38653201 174.69437462 -32.44726562 174.77954102 C-34.20134439 174.82468751 -35.95508651 174.88602546 -37.70800781 174.96411133 C-52.18965071 175.59285462 -52.18965071 175.59285462 -56.34228516 172.54052734 C-57.96310842 170.175485 -58.97988243 167.97186621 -59.96875 165.28515625 C-60.66892869 163.83200636 -61.37945855 162.38378646 -62.1015625 160.94140625 C-62.42656738 160.25288574 -62.75157227 159.56436523 -63.08642578 158.85498047 C-66.12354205 152.11674156 -66.12354205 152.11674156 -71.96875 148.24609375 C-75.08499988 148.11891205 -75.08499988 148.11891205 -78.16015625 148.3203125 C-81.43260499 148.27935 -82.56095857 147.68147502 -85.03125 145.59765625 C-89.23785282 141.25767335 -91.11603033 137.34349177 -91.40625 131.28515625 C-91.25019492 126.56094352 -90.14940435 123.89562876 -86.96875 120.28515625 C-84.69647946 118.2833941 -82.67208897 116.63682573 -79.96875 115.28515625 C-79.22625 115.38957031 -78.48375 115.49398437 -77.71875 115.6015625 C-74.16443235 115.91963354 -72.25959189 115.76138224 -68.96875 114.28515625 C-63.91675303 108.37335147 -58.61924679 99.14092726 -57.96875 91.28515625 C-59.61485587 86.96927362 -62.07659289 83.07895344 -64.40625 79.09765625 C-65.01146484 77.99228516 -65.61667969 76.88691406 -66.24023438 75.74804688 C-69.27547952 70.0988282 -69.27547952 70.0988282 -74.1237793 66.20849609 C-76.5042842 65.64304099 -76.5042842 65.64304099 -79.96875 65.28515625 C-82.68470624 63.16313524 -84.42504278 60.37257069 -85.96875 57.28515625 C-86.56843751 52.00790614 -85.24039725 49.39808423 -81.96875 45.28515625 C-78.96875 43.28515625 -78.96875 43.28515625 -75.7265625 43.421875 C-71.14166394 42.03496702 -70.75577501 40.96443625 -68.3984375 36.9296875 C-67.18857188 34.66551041 -66.00455393 32.3873739 -64.84375 30.09765625 C-62.59858328 25.79969609 -60.3064513 21.53338336 -57.96875 17.28515625 C-57.47193726 16.23279785 -57.47193726 16.23279785 -56.96508789 15.15917969 C-55.99609375 13.5078125 -55.99609375 13.5078125 -52.96875 11.28515625 C-47.84028224 10.57147711 -42.80953411 10.721252 -37.65625 10.91015625 C-36.23377997 10.94027343 -34.81124902 10.9676462 -33.38867188 10.9921875 C-29.91409317 11.05809426 -26.44180835 11.16151474 -22.96875 11.28515625 C-22.67218506 10.33358643 -22.37562012 9.3820166 -22.07006836 8.40161133 C-20.93735913 5.19632796 -20.13146154 4.04723363 -17.53125 1.97265625 C-16.63599609 1.23595703 -16.63599609 1.23595703 -15.72265625 0.484375 C-10.92751399 -2.79426347 -5.22998743 -1.89898353 0 0 Z " fill="#030706" transform="translate(251.96875,264.71484375)"/>
<path d="M0 0 C10.6473669 8.30765889 20.17595903 17.25577418 28.328125 28.0390625 C28.73272949 28.56338867 29.13733398 29.08771484 29.55419922 29.62792969 C36.39986643 38.53966717 41.73224256 47.79138413 46.328125 58.0390625 C46.60640137 58.65894043 46.88467773 59.27881836 47.17138672 59.91748047 C56.34552078 80.74060551 60.26661761 102.27304819 59.328125 125.0390625 C59.29847656 126.0084375 59.26882813 126.9778125 59.23828125 127.9765625 C57.75252876 156.38704914 48.2338829 186.68200634 30.65820312 209.28051758 C29.20009704 211.14242024 29.20009704 211.14242024 27.7109375 213.7421875 C24.93148703 218.35890184 20.99497377 222.11953024 17.328125 226.0390625 C16.3071875 227.15861328 16.3071875 227.15861328 15.265625 228.30078125 C-4.20711205 248.84304363 -32.11717686 261.82810978 -59.671875 267.0390625 C-60.5781665 267.21421387 -61.48445801 267.38936523 -62.41821289 267.56982422 C-71.66884929 269.1862163 -80.74800049 269.43945801 -90.109375 269.4140625 C-90.90078888 269.41318634 -91.69220276 269.41231018 -92.50759888 269.41140747 C-105.57648922 269.36382436 -118.00330627 268.47888912 -130.671875 265.0390625 C-131.52136719 264.8136377 -132.37085938 264.58821289 -133.24609375 264.35595703 C-158.67288508 257.35788834 -179.72779268 244.04147991 -198.671875 226.0390625 C-199.30609375 225.46929687 -199.9403125 224.89953125 -200.59375 224.3125 C-221.88117088 204.54560918 -232.93665991 174.77051431 -238.671875 147.0390625 C-239.04119141 145.27369141 -239.04119141 145.27369141 -239.41796875 143.47265625 C-245.04318277 109.99293419 -238.77421567 76.59358371 -222.671875 47.0390625 C-222.10597656 45.98074219 -221.54007813 44.92242187 -220.95703125 43.83203125 C-210.66100169 25.34762995 -196.22749173 9.76718979 -178.671875 -1.9609375 C-177.0940625 -3.03021484 -177.0940625 -3.03021484 -175.484375 -4.12109375 C-157.93050033 -15.84055153 -139.35530898 -23.72582266 -118.671875 -27.9609375 C-117.85509277 -28.14043945 -117.03831055 -28.31994141 -116.19677734 -28.50488281 C-75.58528418 -36.82209281 -32.82260926 -24.08910797 0 0 Z M-122.671875 -17.9609375 C-124.53392578 -17.52587891 -124.53392578 -17.52587891 -126.43359375 -17.08203125 C-160.27274475 -8.77005069 -189.85493162 11.01888706 -208.234375 40.7890625 C-228.77165237 74.85550348 -237.51788199 114.35647228 -228.06982422 153.53564453 C-222.27216831 176.11393149 -211.89268634 195.41352693 -196.671875 213.0390625 C-195.70314453 214.20888672 -195.70314453 214.20888672 -194.71484375 215.40234375 C-189.62674428 221.40236329 -183.89456107 226.24776565 -177.671875 231.0390625 C-176.81851563 231.70808594 -175.96515625 232.37710938 -175.0859375 233.06640625 C-145.63505533 255.39778087 -108.61416744 264.80357382 -72.00634766 260.26977539 C-48.68385201 256.89664891 -28.02852261 248.28814676 -8.671875 235.0390625 C-7.31642578 234.14380859 -7.31642578 234.14380859 -5.93359375 233.23046875 C25.45410199 212.09380895 42.73281425 177.23912468 49.95263672 141.06005859 C50.75829702 136.7237413 51.17671602 132.44308901 51.328125 128.0390625 C51.36808594 127.06324219 51.40804688 126.08742188 51.44921875 125.08203125 C52.25472017 86.65487517 38.20822884 48.6945066 11.92602539 20.66015625 C-8.69297142 -0.68996416 -35.57939583 -13.7935875 -64.671875 -18.9609375 C-65.60249756 -19.13085205 -66.53312012 -19.3007666 -67.49194336 -19.47583008 C-75.69483673 -20.87298171 -83.67065093 -21.31104115 -91.984375 -21.2734375 C-93.25748535 -21.26924805 -94.5305957 -21.26505859 -95.84228516 -21.26074219 C-105.17449594 -21.14877948 -113.64489196 -20.32152902 -122.671875 -17.9609375 Z " fill="#010303" transform="translate(334.671875,234.9609375)"/>
<path d="M0 0 C1.78047729 0.01353516 1.78047729 0.01353516 3.59692383 0.02734375 C23.10371868 0.41184563 40.11981052 7.4944599 54.6875 20.4375 C55.31914062 20.95054688 55.95078125 21.46359375 56.6015625 21.9921875 C63.83361512 27.88615109 69.50262735 35.29567573 75.125 42.6875 C75.96260864 43.7846936 75.96260864 43.7846936 76.81713867 44.90405273 C81.37098984 50.91776666 85.63026213 57.07584908 89.6875 63.4375 C87.02049574 68.26876289 84.1405054 72.74443741 80.875 77.1875 C76.56391141 83.12946491 72.54057414 89.18582341 68.6875 95.4375 C64.92227284 91.91582774 62.12231954 88.28450495 59.4375 83.875 C43.40936574 58.34784404 23.97647235 36.31642134 -5.91015625 27.6875 C-25.26453246 23.37987995 -47.14616863 26.14409806 -64.26171875 36.1640625 C-66.32931796 37.5338064 -68.34238917 38.93188685 -70.3125 40.4375 C-70.9725 40.1075 -71.6325 39.7775 -72.3125 39.4375 C-63.08636935 29.08574121 -63.08636935 29.08574121 -58.3125 24.4375 C-57.86261719 23.93089844 -57.41273438 23.42429687 -56.94921875 22.90234375 C-42.52284074 7.18725703 -20.88092564 -0.19084316 0 0 Z " fill="#89FDDD" transform="translate(268.3125,7.5625)"/>
<path d="M0 0 C12.90600081 0.10407025 12.90600081 0.10407025 18.22802734 3.57617188 C22.6944841 8.59780863 25.02225964 14.37733341 27.08935547 20.70556641 C28.54192286 24.60163072 30.6789311 27.8738296 33 31.30664062 C34.37876057 34.0043167 34.51932845 35.57952137 34.15869141 38.57373047 C33.32006836 40.57495117 33.32006836 40.57495117 32.14697266 42.49951172 C31.71835937 43.21429688 31.28974609 43.92908203 30.84814453 44.66552734 C30.16655273 45.76477539 30.16655273 45.76477539 29.47119141 46.88623047 C29.03613281 47.60746094 28.60107422 48.32869141 28.15283203 49.07177734 C27.27511647 50.52163341 26.38846917 51.96612042 25.49291992 53.4050293 C24.58884977 54.87453619 23.70968121 56.35960332 22.85375977 57.85766602 C22.43360596 58.57865479 22.01345215 59.29964355 21.58056641 60.04248047 C21.21157227 60.6928125 20.84257812 61.34314453 20.46240234 62.01318359 C18.81827193 63.98121385 17.58082342 64.28550141 15.09619141 64.76123047 C14.44521484 64.81666016 13.79423828 64.87208984 13.12353516 64.92919922 C10.87582328 65.44358638 10.87582328 65.44358638 9.48461914 68.0637207 C7.15869141 70.57373047 7.15869141 70.57373047 3.86230469 71.28417969 C-3.22297528 71.45612223 -3.22297528 71.45612223 -6.48535156 71.4453125 C-8.70580564 71.44871438 -10.91552428 71.52656462 -13.13427734 71.60888672 C-23.39988878 71.77933093 -23.39988878 71.77933093 -27.04541016 68.73022461 C-28.6021562 66.40904875 -29.73531519 64.13625648 -30.84130859 61.57373047 C-31.54816965 60.43844078 -32.27499559 59.31512165 -33.02880859 58.21044922 C-33.62693359 57.23720703 -34.22505859 56.26396484 -34.84130859 55.26123047 C-35.46005859 54.27509766 -36.07880859 53.28896484 -36.71630859 52.27294922 C-37.84130859 49.57373047 -37.84130859 49.57373047 -37.09912109 47.35107422 C-36.47650391 46.47128906 -36.47650391 46.47128906 -35.84130859 45.57373047 C-33.3217518 40.81456764 -33.09618548 35.84039608 -33.84130859 30.57373047 C-35.13919815 28.55054969 -36.4659552 26.54507033 -37.84130859 24.57373047 C-36.52166946 19.63190943 -33.38103925 15.18900001 -30.77880859 10.82373047 C-30.31925781 10.04384766 -29.85970703 9.26396484 -29.38623047 8.46044922 C-23.19099281 -2.00140585 -11.42946353 0.19052027 0 0 Z " fill="#89FDDC" transform="translate(227.84130859375,360.42626953125)"/>
<path d="M0 0 C4.39494061 -0.2325602 8.78830286 -0.37450074 13.1875 -0.5 C15.05631836 -0.60054688 15.05631836 -0.60054688 16.96289062 -0.703125 C26.02248639 -0.89743268 26.02248639 -0.89743268 28.90429688 1.74829102 C30.1552473 3.78753366 31.0674404 5.80300012 32 8 C34.05292754 10.1155391 34.05292754 10.1155391 37 11 C37.79535156 10.93167969 38.59070313 10.86335938 39.41015625 10.79296875 C42.82922405 10.58618968 44.81138281 10.65652929 48 12 C51.87300669 16.42405485 54.45547335 21.86612347 57.02954102 27.11474609 C58.07900525 29.24024916 58.07900525 29.24024916 60 32 C59.7011068 36.55391013 58.3018026 39.70794367 55.98046875 43.58984375 C55.37009766 44.62173828 54.75972656 45.65363281 54.13085938 46.71679688 C53.16889648 48.31104492 53.16889648 48.31104492 52.1875 49.9375 C50.93088654 52.05071998 49.67437354 54.1639997 48.41796875 56.27734375 C47.85875732 57.20796631 47.2995459 58.13858887 46.72338867 59.09741211 C44.77618555 62.37695566 42.88492763 65.68431003 41 69 C35.45042917 69.32296056 29.90637906 69.55788727 24.34960938 69.71411133 C22.4632236 69.77924271 20.57748828 69.86778972 18.69335938 69.98071289 C6.20501385 70.71007979 6.20501385 70.71007979 1 69 C-3.08754967 65.21625006 -4.9290978 61.10446785 -7 56 C-7.83253778 54.59348859 -8.69353533 53.20274969 -9.6015625 51.84375 C-10.26929688 50.7403125 -10.93703125 49.636875 -11.625 48.5 C-11.98722656 47.9328125 -12.34945312 47.365625 -12.72265625 46.78125 C-13.7265625 45.09375 -13.7265625 45.09375 -15 42 C-14.2265625 39.31640625 -14.2265625 39.31640625 -13 37 C-12.53292234 32.34085412 -12.53292234 32.34085412 -14.20849609 28.16503906 C-15 26 -15 26 -13.85009766 23.15917969 C-13.21120605 22.09086914 -12.57231445 21.02255859 -11.9140625 19.921875 C-11.57829193 19.35043762 -11.24252136 18.77900024 -10.89657593 18.19024658 C-9.82089737 16.36752659 -8.72348703 14.55904682 -7.625 12.75 C-6.89175872 11.5164979 -6.15996912 10.28213163 -5.4296875 9.046875 C-3.63652646 6.02104219 -1.82364068 3.00758488 0 0 Z " fill="#88FCDB" transform="translate(202,285)"/>
<path d="M0 0 C13.35081118 0 19.55853164 2.77926582 32 9 C32 46.62 32 84.24 32 123 C9 123 9 123 0 121 C0 81.07 0 41.14 0 0 Z " fill="#89FEDD" transform="translate(248,42)"/>
<path d="M0 0 C0 38.94 0 77.88 0 118 C-7.43347034 114.6962354 -13.43675051 111.58483584 -20 107 C-21.03594299 106.31230026 -22.07188599 105.62460052 -23.13922119 104.9160614 C-28.05133462 101.15647507 -31.96948964 97.98542847 -33.05041504 91.65493774 C-33.53880627 86.39843549 -33.35220153 81.1625431 -33.171875 75.89453125 C-33.14945629 73.95974523 -33.13239232 72.02489047 -33.12042236 70.0900116 C-33.0748898 65.02964789 -32.95728821 59.97350545 -32.82397461 54.91479492 C-32.70058101 49.74000143 -32.64627787 44.56451662 -32.5859375 39.38867188 C-32.45775015 29.25727309 -32.25331448 19.12898929 -32 9 C-30.10854571 8.03557363 -28.214881 7.07548169 -26.3203125 6.1171875 C-25.26602051 5.58206543 -24.21172852 5.04694336 -23.12548828 4.49560547 C-14.84837172 0.53484808 -9.49033389 0 0 0 Z " fill="#89FEDD" transform="translate(239,42)"/>
<path d="M0 0 C0.33 35.97 0.66 71.94 1 109 C8.79080251 111.12476432 15.46102826 112.5732212 23.31835938 113.171875 C25.22379981 113.35153575 27.11546253 113.66608417 29 114 C31 117 31 117 30.6875 119.625 C30 122 30 122 29 123 C9.25271552 124.83625664 -9.43942291 117.89580642 -25 106 C-26.13788734 103.72422532 -26.12342063 102.48966576 -26.12025452 99.96310425 C-26.12162918 99.11893951 -26.12300385 98.27477478 -26.12442017 97.4050293 C-26.12082489 96.477146 -26.11722961 95.5492627 -26.11352539 94.59326172 C-26.11367142 93.61761261 -26.11381744 92.6419635 -26.1139679 91.63674927 C-26.11326935 88.40103966 -26.10547966 85.1653871 -26.09765625 81.9296875 C-26.09579186 79.69052156 -26.09436806 77.45135521 -26.09336853 75.21218872 C-26.08954498 69.31027099 -26.07971607 63.40837776 -26.06866455 57.50646973 C-26.05844694 51.48738944 -26.05387016 45.4683052 -26.04882812 39.44921875 C-26.03809367 27.63280172 -26.02101918 15.81640289 -26 4 C-24.30341954 3.30396699 -22.5914936 2.64536574 -20.875 2 C-19.92367188 1.62875 -18.97234375 1.2575 -17.9921875 0.875 C-14 0 -14 0 0 0 Z " fill="#89FDDC" transform="translate(428,42)"/>
<path d="M0 0 C21.67768898 0.02188929 39.39001724 9.77024242 54.9375 24.3125 C55.91203125 25.18455078 55.91203125 25.18455078 56.90625 26.07421875 C65.77951495 34.38244088 72.85212324 44.93230596 79.75 54.875 C80.29615967 55.63659424 80.84231934 56.39818848 81.4050293 57.18286133 C85.04199796 62.54502051 85.04199796 62.54502051 84.5859375 65.89453125 C82.37623596 69.13577593 80.1287265 72.3176166 77.75 75.4375 C73.60950308 80.94075221 69.84293211 86.47742034 66.375 92.43359375 C65.900625 93.05363281 65.42625 93.67367187 64.9375 94.3125 C63.9475 94.3125 62.9575 94.3125 61.9375 94.3125 C60.258928 91.92492827 58.77651851 89.57737669 57.3125 87.0625 C48.51276566 72.49381868 37.20315742 55.52952356 23.37963867 45.1418457 C21.2267143 42.41087189 21.5008629 40.11452076 21.42578125 36.67578125 C21.37260742 34.72768555 21.37260742 34.72768555 21.31835938 32.74023438 C21.2952595 31.36849483 21.2724771 29.9967499 21.25 28.625 C21.21682458 27.24150393 21.18233469 25.85803871 21.14648438 24.47460938 C21.06386759 21.08732117 20.99475942 17.70029643 20.9375 14.3125 C12.61830445 11.91343374 5.04233973 9.88597305 -3.671875 9.68359375 C-6.0625 9.3125 -6.0625 9.3125 -7.90625 7.94921875 C-9.0625 6.3125 -9.0625 6.3125 -8.8125 3.6875 C-7.35858021 -0.91657935 -4.26510451 0.03917489 0 0 Z " fill="#89FEDD" transform="translate(87.0625,7.6875)"/>
<path d="M0 0 C15.47277382 10.31518255 25.72110867 26.46368417 35.63574219 41.89355469 C36.569118 43.33470832 37.52409376 44.76203848 38.49707031 46.17675781 C38.96467773 46.87381836 39.43228516 47.57087891 39.9140625 48.2890625 C40.33896973 48.9073291 40.76387695 49.5255957 41.20166016 50.16259766 C42.24199785 52.55696508 41.91328395 53.58789444 41 56 C39.59411471 58.49067332 38.15574687 60.90092261 36.625 63.3125 C36.17946777 64.01745605 35.73393555 64.72241211 35.27490234 65.44873047 C28.73062334 75.67716235 21.52756408 85.36472451 13.75 94.6875 C13.27900879 95.26387207 12.80801758 95.84024414 12.32275391 96.43408203 C8.96108819 100.36989072 5.63338265 102.67765821 1 105 C0.67 105 0.34 105 0 105 C0 70.35 0 35.7 0 0 Z " fill="#89FDDC" transform="translate(289,58)"/>
<path d="M0 0 C15.66932917 13.43085357 26.35251723 30.49761128 37 48 C11.4192022 94.09781993 11.4192022 94.09781993 -4.5625 100 C-8.46768401 101.06443384 -11.97241235 101.25708006 -16 101 C-16 98.03 -16 95.06 -16 92 C-11.05 90.68 -6.1 89.36 -1 88 C-0.67 58.96 -0.34 29.92 0 0 Z " fill="#89FDDC" transform="translate(109,63)"/>
<path d="M0 0 C0 28.71 0 57.42 0 87 C-5.03574413 85.32141862 -7.53182573 80.69592957 -10.73535156 76.60888672 C-11.96555297 75.04382354 -13.21302451 73.49238383 -14.4609375 71.94140625 C-20.99052172 63.69188424 -26.56792512 55.00337518 -32 46 C-36.80671765 50.23720134 -39.77597515 55.75749926 -43.109375 61.15234375 C-43.58117187 61.90128906 -44.05296875 62.65023437 -44.5390625 63.421875 C-44.96396973 64.10862305 -45.38887695 64.79537109 -45.82666016 65.50292969 C-46.40746338 66.24397949 -46.40746338 66.24397949 -47 67 C-47.66 67 -48.32 67 -49 67 C-50.32 64.69 -51.64 62.38 -53 60 C-43.21966375 44.00343717 -33.00330759 28.59102771 -20 15 C-19.34644531 14.29488281 -18.69289063 13.58976562 -18.01953125 12.86328125 C-5.74428571 0 -5.74428571 0 0 0 Z " fill="#88FCDC" transform="translate(394,51)"/>
<path d="M0 0 C0 22.77 0 45.54 0 69 C-5.62547609 63.37452391 -5.62547609 63.37452391 -7.68359375 60.328125 C-8.13371826 59.66748047 -8.58384277 59.00683594 -9.04760742 58.32617188 C-9.50627197 57.64103516 -9.96493652 56.95589844 -10.4375 56.25 C-10.91614502 55.54423828 -11.39479004 54.83847656 -11.88793945 54.11132812 C-13.26461414 52.07817168 -14.6336785 50.04012389 -16 48 C-16.67546875 46.99453125 -17.3509375 45.9890625 -18.046875 44.953125 C-19.37117572 42.97298011 -20.69011531 40.98969826 -22 39 C-25.52816195 43.2589955 -28.64059285 47.74632336 -31.75 52.3125 C-32.25660156 53.05306641 -32.76320312 53.79363281 -33.28515625 54.55664062 C-34.52519457 56.36990421 -35.76342265 58.18437521 -37 60 C-39.5625 57.8125 -39.5625 57.8125 -42 55 C-42.31410988 50.01668921 -38.3947682 45.63335184 -35.6875 41.6875 C-35.15060547 40.89641846 -34.61371094 40.10533691 -34.06054688 39.2902832 C-7.17957874 0 -7.17957874 0 0 0 Z " fill="#89FCDC" transform="translate(198,58)"/>
<path d="M0 0 C2.125 4.625 2.125 4.625 1 8 C-2.12863758 9.56431879 -5.55841329 9.53154002 -9 9.875 C-15.64461674 10.58579664 -21.66363202 11.78730007 -28 14 C-28.33 17.63 -28.66 21.26 -29 25 C-30.47146484 25.12955078 -30.47146484 25.12955078 -31.97265625 25.26171875 C-47.38233628 26.79267296 -60.40758958 31.7325633 -74 39 C-68.34101301 26.11990983 -53.80583256 15.81697134 -42 9 C-41.22269531 8.53722656 -40.44539063 8.07445312 -39.64453125 7.59765625 C-27.13536862 0.70399711 -13.99649398 -0.67004492 0 0 Z " fill="#8AFDDD" transform="translate(457,8)"/>
<path d="M0 0 C3.38031589 1.18767855 3.93216817 1.89825225 6 5 C6.50835292 8.8973724 6.32962183 10.50556726 4.125 13.8125 C1.38286658 16.6352844 0.58642602 16.94570129 -3.375 17.3125 C-7 17 -7 17 -9.4375 15.5625 C-11.75587974 11.76035723 -11.77201236 8.33759522 -11 4 C-8.18428406 -0.61777415 -5.12929224 -0.54956703 0 0 Z " fill="#86F8D8" transform="translate(181,388)"/>
<path d="M0 0 C3.0625 2.5625 3.0625 2.5625 5 6 C5.14842915 10.30444539 4.71117869 12.18423621 1.875 15.4375 C-1.75917665 17.41259601 -3.91874064 17.59363772 -8 17 C-10.4375 15.5625 -10.4375 15.5625 -12 13 C-12.76726228 8.68909336 -12.73340143 5.25289411 -10.5 1.4375 C-6.99192717 -0.57964187 -3.87447049 -1.00307438 0 0 Z " fill="#86F8D8" transform="translate(249,272)"/>
<path d="M0 0 C3 1 3 1 5 4 C4.84035405 8.1685331 1.84248955 10.75610151 -0.875 13.625 C-1.35880127 14.14481445 -1.84260254 14.66462891 -2.34106445 15.20019531 C-7.28642599 20.43974328 -12.57793675 25.25962749 -18 30 C-18 26.60742231 -17.52799143 25.98549648 -15.5859375 23.33984375 C-15.07450195 22.6327124 -14.56306641 21.92558105 -14.03613281 21.19702148 C-13.48795898 20.45137939 -12.93978516 19.7057373 -12.375 18.9375 C-7.93547638 12.78911213 -3.71103887 6.62452992 0 0 Z " fill="#86F6D6" transform="translate(335,120)"/>
<path d="M0 0 C1.32 0.99 2.64 1.98 4 3 C3.66208184 8.61788947 1.28669184 11.55435033 -2.5 15.4375 C-3.03592773 16.00299561 -3.57185547 16.56849121 -4.12402344 17.15112305 C-8.39578553 21.57599261 -12.94271135 25.48799399 -18 29 C-18 24.88847306 -15.86713984 22.72639701 -13.5 19.5625 C-12.58433385 18.31237094 -11.67029919 17.06104543 -10.7578125 15.80859375 C-10.29665039 15.17679199 -9.83548828 14.54499023 -9.36035156 13.89404297 C-6.1020405 9.35743542 -3.0621592 4.67022045 0 0 Z " fill="#87F6D7" transform="translate(150,120)"/>
<path d="M0 0 C2.9375 0.75 2.9375 0.75 4.9375 2.75 C5.40921648 6.36649298 5.35541658 8.12312512 3.3125 11.1875 C0.9375 12.75 0.9375 12.75 -2.1875 12.6875 C-5.0625 11.75 -5.0625 11.75 -7.0625 8.75 C-6.875 5.1875 -6.875 5.1875 -6.0625 1.75 C-3.0625 -0.25 -3.0625 -0.25 0 0 Z " fill="#81F0D1" transform="translate(313.0625,390.25)"/>
<path d="M0 0 C1.2065625 0.0309375 1.2065625 0.0309375 2.4375 0.0625 C2.4375 3.0325 2.4375 6.0025 2.4375 9.0625 C0.0625 9.25 0.0625 9.25 -2.5625 9.0625 C-4.5625 6.0625 -4.5625 6.0625 -4.25 3.4375 C-3.27807854 0.07995314 -3.27807854 0.07995314 0 0 Z " fill="#86F9D8" transform="translate(82.5625,155.9375)"/>
<path d="M0 0 C1.67542976 0.28604898 3.34385343 0.61781233 5 1 C5 2.65 5 4.3 5 6 C3.35 6 1.7 6 0 6 C-0.38218767 4.34385343 -0.71395102 2.67542976 -1 1 C-0.67 0.67 -0.34 0.34 0 0 Z " fill="#86F9D9" transform="translate(176,316)"/>
<path d="M0 0 C1.32 0.66 2.64 1.32 4 2 C3.67 3.32 3.34 4.64 3 6 C1.35 5.67 -0.3 5.34 -2 5 C-1.125 1.125 -1.125 1.125 0 0 Z " fill="#77DDC0" transform="translate(244,432)"/>
</svg>
