<?xml version="1.0" encoding="UTF-8"?>
<svg version="1.1" xmlns="http://www.w3.org/2000/svg" width="512" height="512">
<path d="M0 0 C2.87029869 1.79393668 4.49131638 2.98263276 6 6 C6.17262013 7.40440996 6.2968777 8.81495744 6.39453125 10.2265625 C8.90698167 42.96827573 21.21177421 68.65889565 45.88671875 90.5625 C48.55660204 92.75629854 51.27073637 94.88080707 54 97 C55.70998101 98.43553961 57.41827374 99.87309231 59.125 101.3125 C65.74969695 106.7327066 72.76460369 111.57622611 79.78710938 116.46044922 C172.0307163 180.63610955 172.0307163 180.63610955 181.875 234.625 C186.90426653 266.15315383 180.65883799 298.44782775 162.1875 324.625 C151.79249529 338.32194738 140.45915076 350.25838582 127 361 C124.93279778 362.68182451 122.87293257 364.3723634 120.8125 366.0625 C119.20833333 367.375 117.60416667 368.6875 116 370 C119.2090533 373.3940798 122.26204828 375.99024101 126.3125 378.3125 C127.19550781 378.82425781 128.07851563 379.33601563 128.98828125 379.86328125 C129.98408203 380.42595703 129.98408203 380.42595703 131 381 C134.11844439 378.4797878 137.22238668 375.94265411 140.31445312 373.39013672 C141.43623603 372.46495829 142.55993226 371.5420948 143.68554688 370.62158203 C174.18053043 345.60207233 196.08776395 312.15422898 200.80151367 272.38818359 C202.14040798 256.27863367 201.7830231 239.74617031 198 224 C197.8443457 223.3203418 197.68869141 222.64068359 197.52832031 221.94042969 C191.96672906 198.373048 179.52790689 177.47960978 163 160 C161.89117511 158.69143298 160.78683332 157.37905099 159.6875 156.0625 C140.34357514 133.96783354 113.53157268 117.95446149 89.640625 101.36132812 C77.07309305 92.63031316 65.22119777 83.43662622 54 73 C52.85724609 71.95585937 52.85724609 71.95585937 51.69140625 70.890625 C36.98605141 56.92436079 26.36230522 37.43457837 25 17 C24.90525391 15.76636719 24.90525391 15.76636719 24.80859375 14.5078125 C24.53827484 8.63055612 25.10069656 5.47273042 29 1 C32.45739557 -0.72869779 36.21975568 -0.48966895 40 0 C42.87029869 1.79393668 44.49131638 2.98263276 46 6 C46.99 13.92 47.98 21.84 49 30 C80.02 30 111.04 30 143 30 C144.485 18.12 144.485 18.12 146 6 C150.65165563 0.18543046 150.65165563 0.18543046 153.98828125 -0.2734375 C158.48027315 -0.46972622 160.34969305 -0.51482633 164 2.375 C168.41111853 8.16459306 167.3436596 13.86922953 166.57421875 20.87890625 C163.79139854 40.72505235 154.66015795 55.57450214 141 70 C140.31292969 70.73992187 139.62585938 71.47984375 138.91796875 72.2421875 C134.4544292 76.89619349 129.67495083 81.00582417 124.625 85 C124.01760986 85.48138428 123.41021973 85.96276855 122.78442383 86.45874023 C120.2056906 88.45889071 118.11941291 89.9601957 115 91 C119.54431011 96.1711115 125.15281368 99.44663108 131 103 C135.05229871 99.56513734 139.08857193 96.11285534 143.10595703 92.63720703 C144.28925609 91.61436564 145.47476757 90.59407163 146.66357422 89.57763672 C168.97595308 70.42565146 182.6828557 45.49256933 184.9375 16 C184.98801514 15.0912915 185.03853027 14.18258301 185.09057617 13.24633789 C185.46562061 7.98247887 185.97270709 4.79039333 190 1 C193.47263273 -0.73631636 197.21193013 -0.60190402 201 0 C203.75569447 2.18159145 205.43588747 3.87177494 207 7 C209.56724626 36.52333197 197.26584425 66.04167111 178.61987305 88.36010742 C170.83574397 97.49385976 162.69299167 105.68793146 153.1875 113.0546875 C150.76044338 114.8873826 150.76044338 114.8873826 150 118 C150.62003906 118.48726563 151.24007813 118.97453125 151.87890625 119.4765625 C167.32849778 131.84523112 181.3247917 145.36127018 193 161.375 C193.56477051 162.14875977 194.12954102 162.92251953 194.71142578 163.71972656 C195.23978027 164.45932617 195.76813477 165.19892578 196.3125 165.9609375 C197.01826172 166.94779541 197.01826172 166.94779541 197.73828125 167.95458984 C199.13604305 170.22054348 200.0378849 172.52232411 201 175 C209.45993909 175.24207593 217.91508915 175.39427427 226.37815094 175.43784332 C230.31021102 175.46078198 234.23714367 175.51241203 238.16748047 175.63427734 C258.48713733 176.8565594 258.48713733 176.8565594 276.12585449 168.41491699 C279.20256436 165.18639047 282.11397669 162.08212885 284 158 C284.09592901 155.24728326 284.09592901 155.24728326 283 153 C279.71473663 141.40495281 280.43553958 131.21106738 286.4375 120.4140625 C291.47618659 113.31629725 298.4506899 108.93766912 306.375 105.5625 C317.22762426 103.8784721 327.972314 104.20862402 337.1875 110.6875 C344.73685942 116.89475108 350.98595036 123.88967239 352.23925781 133.91357422 C353.16327451 144.92176195 351.98412345 154.57362036 345.015625 163.55859375 C338.57160052 170.51676911 330.50188389 175.57418393 320.8984375 176.203125 C319.15433594 176.22632813 319.15433594 176.22632813 317.375 176.25 C315.65410156 176.28867187 315.65410156 176.28867187 313.8984375 176.328125 C308.99733743 175.91560756 304.6448848 174.55966504 300 173 C299.34402832 173.6612085 298.68805664 174.32241699 298.01220703 175.00366211 C295.58028964 177.45260853 293.14614635 179.89929753 290.71044922 182.34448242 C289.6561597 183.40380474 288.60276891 184.46402229 287.55029297 185.52514648 C286.03848143 187.04906961 284.52348098 188.56975784 283.0078125 190.08984375 C281.64100342 191.46450806 281.64100342 191.46450806 280.24658203 192.86694336 C276.74352963 196.19297779 274.73762437 196.13911679 269.98974609 196.20532227 C268.72858978 196.22526749 267.46743347 196.24521271 266.1680603 196.26576233 C264.78652063 196.28274665 263.40497966 196.29962546 262.0234375 196.31640625 C260.61381418 196.3369756 259.20419703 196.35797207 257.79458618 196.37937927 C254.08252965 196.43460195 250.37041743 196.48401031 246.65826416 196.53222656 C242.87108397 196.58244018 239.08398474 196.63812697 235.296875 196.69335938 C227.86465188 196.80094333 220.43236148 196.90238773 213 197 C213.17226608 197.53203537 213.34453217 198.06407074 213.52201843 198.61222839 C214.31430019 201.06702265 215.1005348 203.52371511 215.88671875 205.98046875 C216.15770386 206.81703003 216.42868896 207.65359131 216.70788574 208.51550293 C220.68351433 220.98053461 222.06180277 232.8652388 223 246 C237.52 245.67 252.04 245.34 267 245 C268.98 241.04 268.98 241.04 271 237 C275.69231847 230.78826412 281.72661801 227.42446066 289 225 C300.22256519 224.17021033 309.24287095 224.99404631 318.3125 232.125 C323.68756016 237.15187812 327.65254911 244.61984039 328.23828125 252.00390625 C328.46897842 263.0652285 326.6944821 271.05021734 319 279.2421875 C311.02443133 286.25196465 303.10193567 287.48463766 292.765625 287.2734375 C284.01483253 286.63800651 277.9536632 282.22305973 272 276 C269.72166116 273.16853844 268.15821731 270.47465194 267 267 C245.22 266.505 245.22 266.505 223 266 C222.67 270.62 222.34 275.24 222 280 C221.4868518 283.35810222 220.93924193 286.62191283 220.25 289.9375 C220.105625 290.70255859 219.96125 291.46761719 219.8125 292.25585938 C218.23624662 300.05450009 215.60067887 307.49645325 213 315 C213.77150391 314.9969838 214.54300781 314.99396759 215.33789062 314.99085999 C222.63505132 314.96854625 229.93103671 314.97992853 237.2280426 315.02846622 C240.9789677 315.05224654 244.72900734 315.06333164 248.47998047 315.04467773 C252.10508446 315.02712898 255.72860378 315.04387648 259.35351562 315.08367729 C260.73125481 315.0929189 262.10913271 315.09013061 263.48681641 315.07469368 C275.61085173 314.95211816 275.61085173 314.95211816 280.64257812 319.29492188 C281.79021136 320.50351735 282.91352695 321.73614029 284 323 C285.1765918 324.12039673 285.1765918 324.12039673 286.37695312 325.26342773 C287.00537109 325.89708252 287.63378906 326.5307373 288.28125 327.18359375 C288.97734375 327.88291016 289.6734375 328.58222656 290.390625 329.30273438 C291.43476562 330.35944336 291.43476562 330.35944336 292.5 331.4375 C293.22703125 332.16904297 293.9540625 332.90058594 294.703125 333.65429688 C296.47109499 335.43389824 298.23666378 337.21580918 300 339 C300.64138916 338.78851318 301.28277832 338.57702637 301.94360352 338.35913086 C312.18468391 335.11130801 322.27002823 334.31532889 332.3984375 338.54296875 C341.03590424 343.38046889 347.41056673 350.59987592 351.1015625 359.72265625 C353.45991278 368.32550794 353.36999667 379.59271156 349.46484375 387.72265625 C343.58922505 396.85728478 336.32918267 403.57633446 325.7734375 406.4609375 C316.06256302 408.34840324 306.63166525 407.37899915 298.109375 402.265625 C287.7220312 395.1000242 283.79177776 388.322847 281 376 C280.14210471 369.92800776 281.36875129 364.98224643 283.44140625 359.26171875 C284.22048087 356.10728375 283.54538436 354.0447066 282.05601501 351.1917572 C277.56609675 344.5421385 272.46438055 339.0542907 264.43878174 337.15899658 C254.95598803 336.01999567 245.44233435 336.23950312 235.91137695 336.50646973 C231.96927756 336.60050484 228.02703622 336.6077888 224.08398438 336.62304688 C216.38668696 336.66528385 208.69502818 336.8016168 201 337 C200.71261963 337.75901611 200.42523926 338.51803223 200.12915039 339.30004883 C198.68075488 342.76335821 196.62744812 345.6654795 194.4375 348.6875 C193.99494873 349.30254395 193.55239746 349.91758789 193.09643555 350.55126953 C189.68343013 355.22156993 186.00798475 359.55903886 182.05859375 363.7890625 C180.2543708 365.7268048 178.5640306 367.71284859 176.875 369.75 C173.34821216 373.79713359 169.47129038 377.45301885 165.5625 381.125 C164.94165527 381.71120117 164.32081055 382.29740234 163.68115234 382.90136719 C159.34367247 386.9287837 154.7989854 390.53753085 150 394 C151.71100502 397.71674477 153.5388412 399.44031664 156.8125 401.9375 C183.71633384 423.45352419 202.53031291 453.06264444 206.58203125 487.61328125 C208.24501498 503.93659399 208.24501498 503.93659399 205.125 508.75 C202.28802543 511.75385543 200.70215879 512.18430081 196.6875 512.3125 C193.16458401 512.28413514 192.10641081 512.06650675 189 510.125 C186.30050875 507.25679054 185.8699796 505.59700412 185.60546875 501.7734375 C183.09301833 469.03172427 170.78822579 443.34110435 146.11328125 421.4375 C143.4433875 419.24369287 140.72971116 417.1186418 138 415 C136.31062094 413.58557465 134.62317358 412.16883941 132.9375 410.75 C122.06029141 401.86027003 110.39597648 393.95955427 98.875 385.9375 C59.33685943 358.39240468 19.27926994 327.57965601 10.125 277.375 C5.09573347 245.84684617 11.34116201 213.55217225 29.8125 187.375 C40.20750471 173.67805262 51.54084924 161.74161418 65 151 C67.06720222 149.31817549 69.12706743 147.6276366 71.1875 145.9375 C72.79166667 144.625 74.39583333 143.3125 76 142 C72.7909467 138.6059202 69.73795172 136.00975899 65.6875 133.6875 C64.80449219 133.17574219 63.92148438 132.66398438 63.01171875 132.13671875 C62.34785156 131.76160156 61.68398437 131.38648438 61 131 C46.50197926 142.46886792 32.10247869 154.08040295 21 169 C20.59442871 169.54124512 20.18885742 170.08249023 19.77099609 170.64013672 C-3.74546056 202.18226265 -13.7328446 239.31595784 -8.17993164 278.59643555 C-7.58234724 282.09895516 -6.84346262 285.5489428 -6 289 C-5.75056641 290.04921631 -5.75056641 290.04921631 -5.49609375 291.11962891 C2.88141387 325.27348636 25.76890394 352.6726646 53 374 C54.1293863 374.91708048 55.25688724 375.83648611 56.3828125 376.7578125 C65.23667003 383.97679939 74.38230903 390.7176234 83.68408203 397.34570312 C87.55210674 400.10869442 91.39974772 402.89982534 95.25 405.6875 C99.43822066 408.71874614 103.62833527 411.74581711 107.85546875 414.72265625 C118.84659364 422.46774345 129.15097287 430.83960404 139 440 C139.76183594 440.69609375 140.52367187 441.3921875 141.30859375 442.109375 C157.61185521 457.5932351 166.31397064 477.75794238 167.3125 500.125 C167.27502188 504.98965983 166.17838375 507.35420687 163 511 C159.54260443 512.72869779 155.78024432 512.48966895 152 512 C149.12970131 510.20606332 147.50868362 509.01736724 146 506 C144.515 494.12 144.515 494.12 143 482 C111.98 482 80.96 482 49 482 C48.01 489.92 47.02 497.84 46 506 C41.34834437 511.81456954 41.34834437 511.81456954 38.01171875 512.2734375 C33.51972685 512.46972622 31.65030695 512.51482633 28 509.625 C23.58888147 503.83540694 24.6563404 498.13077047 25.42578125 491.12109375 C28.20860146 471.27494765 37.33984205 456.42549786 51 442 C52.03060547 440.89011719 52.03060547 440.89011719 53.08203125 439.7578125 C57.5455708 435.10380651 62.32504917 430.99417583 67.375 427 C67.98239014 426.51861572 68.58978027 426.03723145 69.21557617 425.54125977 C71.7943094 423.54110929 73.88058709 422.0398043 77 421 C72.45568989 415.8288885 66.84718632 412.55336892 61 409 C56.94770129 412.43486266 52.91142807 415.88714466 48.89404297 419.36279297 C47.71074391 420.38563436 46.52523243 421.40592837 45.33642578 422.42236328 C23.02404692 441.57434854 9.3171443 466.50743067 7.0625 496 C7.01198486 496.9087085 6.96146973 497.81741699 6.90942383 498.75366211 C6.53437939 504.01752113 6.02729291 507.20960667 2 511 C-1.47263273 512.73631636 -5.21193013 512.60190402 -9 512 C-11.75569447 509.81840855 -13.43588747 508.12822506 -15 505 C-17.37843319 474.67497687 -4.87076233 445.34233541 14.3125 422.4375 C22.11296517 413.3371825 30.4917142 405.11619867 39.98046875 397.77734375 C40.64691406 397.19082031 41.31335938 396.60429687 42 396 C42 395.34 42 394.68 42 394 C40.52931586 392.69136629 38.99398682 391.4553144 37.4375 390.25 C22.91679015 378.61097742 9.9680272 365.66875936 -1 350.625 C-1.84715576 349.46436035 -1.84715576 349.46436035 -2.71142578 348.28027344 C-3.23978027 347.54067383 -3.76813477 346.80107422 -4.3125 346.0390625 C-4.78300781 345.38115723 -5.25351563 344.72325195 -5.73828125 344.04541016 C-7.13604305 341.77945652 -8.0378849 339.47767589 -9 337 C-17.45993909 336.75792407 -25.91508915 336.60572573 -34.37815094 336.56215668 C-38.31021102 336.53921802 -42.23714367 336.48758797 -46.16748047 336.36572266 C-66.44877933 335.14859599 -66.44877933 335.14859599 -84.10144043 343.49047852 C-90.13856841 349.68049102 -90.13856841 349.68049102 -92.19189453 357.79174805 C-91.46901185 361.07839002 -90.32622276 363.91382124 -89 367 C-87.64893283 376.02627852 -90.66139314 384.82998573 -95.6953125 392.26171875 C-100.76687342 399.01873853 -108.3106344 405.12116111 -116.77734375 406.75390625 C-126.97886754 407.8834247 -136.58482961 407.37234651 -145.1875 401.3125 C-152.71201263 395.1256785 -159.07311421 388.08236298 -160.22314453 378.05419922 C-161.04226466 366.90235368 -160.04790307 357.65110375 -152.75 348.75 C-144.62749039 340.19544201 -136.96702957 335.93454356 -125.0625 335.625 C-118.94616834 335.58207837 -113.74726168 337.0941348 -108 339 C-107.34402832 338.3387915 -106.68805664 337.67758301 -106.01220703 336.99633789 C-103.58028964 334.54739147 -101.14614635 332.10070247 -98.71044922 329.65551758 C-97.6561597 328.59619526 -96.60276891 327.53597771 -95.55029297 326.47485352 C-94.03848143 324.95093039 -92.52348098 323.43024216 -91.0078125 321.91015625 C-90.09660645 320.99371338 -89.18540039 320.07727051 -88.24658203 319.13305664 C-84.74352963 315.80702221 -82.73762437 315.86088321 -77.98974609 315.79467773 C-76.72858978 315.77473251 -75.46743347 315.75478729 -74.1680603 315.73423767 C-72.78652063 315.71725335 -71.40497966 315.70037454 -70.0234375 315.68359375 C-68.61381418 315.6630244 -67.20419703 315.64202793 -65.79458618 315.62062073 C-62.08252965 315.56539805 -58.37041743 315.51598969 -54.65826416 315.46777344 C-50.87108397 315.41755982 -47.08398474 315.36187303 -43.296875 315.30664062 C-35.86465188 315.19905667 -28.43236148 315.09761227 -21 315 C-21.17226608 314.46796463 -21.34453217 313.93592926 -21.52201843 313.38777161 C-22.31430019 310.93297735 -23.1005348 308.47628489 -23.88671875 306.01953125 C-24.15770386 305.18296997 -24.42868896 304.34640869 -24.70788574 303.48449707 C-28.68351433 291.01946539 -30.06180277 279.1347612 -31 266 C-52.78 266.495 -52.78 266.495 -75 267 C-76.32 269.64 -77.64 272.28 -79 275 C-83.69231847 281.21173588 -89.72661801 284.57553934 -97 287 C-108.22256519 287.82978967 -117.24287095 287.00595369 -126.3125 279.875 C-131.68756016 274.84812188 -135.65254911 267.38015961 -136.23828125 259.99609375 C-136.46897842 248.9347715 -134.6944821 240.94978266 -127 232.7578125 C-119.02443133 225.74803535 -111.10193567 224.51536234 -100.765625 224.7265625 C-92.01483253 225.36199349 -85.9536632 229.77694027 -80 236 C-77.72166116 238.83146156 -76.15821731 241.52534806 -75 245 C-53.22 245.495 -53.22 245.495 -31 246 C-30.67 241.38 -30.34 236.76 -30 232 C-29.4868518 228.64189778 -28.93924193 225.37808717 -28.25 222.0625 C-28.105625 221.29744141 -27.96125 220.53238281 -27.8125 219.74414062 C-26.23624662 211.94549991 -23.60067887 204.50354675 -21 197 C-22.15725586 197.00452431 -22.15725586 197.00452431 -23.33789062 197.00914001 C-30.63505132 197.03145375 -37.93103671 197.02007147 -45.2280426 196.97153378 C-48.9789677 196.94775346 -52.72900734 196.93666836 -56.47998047 196.95532227 C-60.10508446 196.97287102 -63.72860378 196.95612352 -67.35351562 196.91632271 C-68.73125481 196.9070811 -70.10913271 196.90986939 -71.48681641 196.92530632 C-83.61085173 197.04788184 -83.61085173 197.04788184 -88.64257812 192.70507812 C-89.79021136 191.49648265 -90.91352695 190.26385971 -92 189 C-92.78439453 188.25306885 -93.56878906 187.5061377 -94.37695312 186.73657227 C-95.00537109 186.10291748 -95.63378906 185.4692627 -96.28125 184.81640625 C-97.32539062 183.76743164 -97.32539062 183.76743164 -98.390625 182.69726562 C-99.43476562 181.64055664 -99.43476562 181.64055664 -100.5 180.5625 C-101.59054688 179.46518555 -101.59054688 179.46518555 -102.703125 178.34570312 C-104.47109499 176.56610176 -106.23666378 174.78419082 -108 173 C-108.96208374 173.31723022 -108.96208374 173.31723022 -109.94360352 173.64086914 C-120.18468391 176.88869199 -130.27002823 177.68467111 -140.3984375 173.45703125 C-149.03107657 168.62223489 -155.42743031 161.39938154 -159.09765625 152.26953125 C-161.75108237 142.65516906 -161.04320847 131.60375414 -156.671875 122.65234375 C-151.28002967 114.09845829 -143.47499151 107.87479561 -133.5859375 105.39453125 C-121.86552167 103.60637113 -111.75320507 105.25817153 -102.125 112.3125 C-93.8291103 119.33664903 -90.24321579 127.57375966 -88.6484375 138.3828125 C-88.50123655 142.00930868 -88.78581424 144.50515703 -90.24609375 147.87890625 C-91.72054827 151.622459 -92.20432653 153.95823912 -92 158 C-88.88033216 164.99684718 -82.76814286 170.62259013 -76 174 C-65.53273842 176.55041174 -54.53424203 175.89369989 -43.8427124 175.56219482 C-39.90733959 175.45771771 -35.97170387 175.44604716 -32.03515625 175.42578125 C-24.35366455 175.37294634 -16.67872734 175.21972204 -9 175 C-8.70971924 174.2373584 -8.41943848 173.4747168 -8.12036133 172.68896484 C-6.72783751 169.34678629 -4.7951362 166.54304241 -2.6875 163.625 C-2.03696655 162.72068237 -2.03696655 162.72068237 -1.37329102 161.7980957 C10.90518966 145.03901635 25.49673298 130.5684603 42 118 C40.49790399 114.23217259 38.38108671 112.49860348 35.1875 110.0625 C8.24469498 88.51530907 -9.97194882 59.32997667 -14.58203125 24.91796875 C-16.36892293 8.16794673 -16.36892293 8.16794673 -13.125 3.1875 C-9.27890776 -0.7717126 -5.29438206 -0.68580079 0 0 Z M63 51 C70.39196025 59.62395362 78.40043264 66.70255811 87.3125 73.6875 C87.99425293 74.24139404 88.67600586 74.79528809 89.37841797 75.3659668 C93.036485 78.33390488 93.036485 78.33390488 97.5 78.7109375 C101.04595883 76.28417193 104.38667962 73.68733818 107.6875 70.9375 C108.39285889 70.35621338 109.09821777 69.77492676 109.82495117 69.17602539 C120.1535032 60.81722258 120.1535032 60.81722258 129 51 C107.22 51 85.44 51 63 51 Z M87.75 160.25 C87.03779297 160.78850586 86.32558594 161.32701172 85.59179688 161.88183594 C68.13374319 173.88498763 68.13374319 173.88498763 56 190 C82.4 190 108.8 190 136 190 C128.53955291 177.56592151 115.83524612 169.08806439 104.4375 160.4375 C103.73423584 159.90020264 103.03097168 159.36290527 102.30639648 158.80932617 C101.64712158 158.31408447 100.98784668 157.81884277 100.30859375 157.30859375 C99.42385376 156.64041626 99.42385376 156.64041626 98.52124023 155.95874023 C94.41153756 153.368658 90.98007186 157.79508518 87.75 160.25 Z M41 211 C35.82413494 221.07703428 35.82413494 221.07703428 32.625 231.3125 C32.46128906 231.96283203 32.29757813 232.61316406 32.12890625 233.28320312 C31.06145422 237.77278078 31 241.23053014 31 246 C73.9 246 116.8 246 161 246 C161 240.6343433 160.65408555 236.39359179 159.375 231.3125 C159.07335937 230.02988281 158.77171875 228.74726563 158.4609375 227.42578125 C156.57590678 221.71524702 153.68936952 216.37873903 151 211 C114.7 211 78.4 211 41 211 Z M31 266 C31 271.3656567 31.34591445 275.60640821 32.625 280.6875 C32.92664063 281.97011719 33.22828125 283.25273437 33.5390625 284.57421875 C35.42409322 290.28475298 38.31063048 295.62126097 41 301 C77.3 301 113.6 301 151 301 C156.17586506 290.92296572 156.17586506 290.92296572 159.375 280.6875 C159.53871094 280.03716797 159.70242188 279.38683594 159.87109375 278.71679688 C160.93854578 274.22721922 161 270.76946986 161 266 C118.1 266 75.2 266 31 266 Z M56 322 C61.34286639 330.90477732 69.20504988 337.33356761 77.32958984 343.68457031 C78.55068298 344.64616777 79.763433 345.61838641 80.97119141 346.59667969 C83.09153682 348.31237903 85.23086994 350.00165728 87.375 351.6875 C88.05312744 352.24155518 88.73125488 352.79561035 89.42993164 353.36645508 C91.24640536 354.76930537 92.9358287 355.99690635 95 357 C107.30495696 355.13673065 127.12367077 334.41981738 135 325 C135.33 324.01 135.66 323.02 136 322 C109.6 322 83.2 322 56 322 Z M89.1875 437.3125 C88.61507568 437.75891846 88.04265137 438.20533691 87.45288086 438.6652832 C83.27459372 441.94712331 79.14499422 445.28731014 75.0625 448.6875 C74.54389404 449.11393799 74.02528809 449.54037598 73.4909668 449.97973633 C69.43317053 453.40592835 66.56601683 456.83964703 63 461 C84.78 461 106.56 461 129 461 C121.55354671 452.31247116 113.59051819 445.31480712 104.5 438.4375 C103.79311035 437.90036377 103.0862207 437.36322754 102.35791016 436.80981445 C101.6932373 436.31441162 101.02856445 435.81900879 100.34375 435.30859375 C99.74755859 434.86314209 99.15136719 434.41769043 98.53710938 433.95874023 C94.74132278 431.59119672 92.15285084 434.98199457 89.1875 437.3125 Z " fill="#010188" transform="translate(160,0)"/>
<path d="M0 0 C8.30472617 7.03163089 11.92432985 15.30949054 13.4765625 26.140625 C13.88449428 36.45017363 10.40059801 44.50688129 3.66015625 52.16796875 C-4.23744782 60.01689729 -11.46944616 63.66235513 -22.625 64.0625 C-33.59492694 63.84170698 -40.82739843 60.67934819 -48.7109375 53.05859375 C-56.61923935 44.3937215 -58.55722304 35.53767758 -58.2421875 24.0234375 C-57.64593261 14.34381029 -53.4019885 7.08669977 -46.34765625 0.59765625 C-32.42939413 -10.15436615 -14.20443593 -10.40721048 0 0 Z " fill="#B1EFFA" transform="translate(57.875,112.3125)"/>
<path d="M0 0 C8.29168142 6.04651267 14.26849634 13.03594968 17 23 C17.92916597 33.93390649 17.85505631 43.6709228 10.94140625 52.68359375 C3.63886074 61.16833887 -3.6695151 66.18673366 -14.9609375 67.2890625 C-27.25878585 67.63681657 -35.71452488 64.03839675 -45 56 C-51.27925535 49.88288505 -54.10198421 39.89865418 -54.4375 31.3125 C-53.81548414 20.66047843 -49.22491691 12.08673729 -41.63671875 4.69921875 C-29.83014079 -5.34463528 -13.95195905 -7.81393502 0 0 Z " fill="#B1EFFA" transform="translate(495,340)"/>
<path d="M0 0 C9.42172495 7.10166055 15.57080683 14.50651718 17.4765625 26.3359375 C18.65303224 36.29450528 15.43005413 45.40389027 9.4765625 53.3359375 C3.79858064 59.96024967 -3.71088496 65.36020673 -12.5234375 66.3359375 C-23.08594595 67.1416767 -32.28715054 65.93021789 -40.64453125 59.05859375 C-48.04592969 52.27269622 -53.14656237 45.55905638 -53.90234375 35.26953125 C-54.34164754 24.770638 -53.11281256 16.42778397 -46.2734375 8.0859375 C-34.18470577 -4.64581187 -15.75749786 -10.39116732 0 0 Z " fill="#B1EFFA" transform="translate(53.5234375,340.6640625)"/>
<path d="M0 0 C7.54935942 6.20725108 13.79845036 13.20217239 15.05175781 23.22607422 C15.97577451 34.23426195 14.79662345 43.88612036 7.828125 52.87109375 C1.37157874 59.84278998 -6.70418707 64.89265906 -16.32421875 65.515625 C-29.18100862 65.6853516 -36.84240805 63.41044902 -46.1875 54.3125 C-52.78260098 46.7275152 -56.96532773 38.01188202 -56.53125 27.79296875 C-55.03575757 17.00163129 -51.28509355 7.99121316 -42.53515625 1.27734375 C-29.70208158 -7.29564303 -13.17918308 -9.26582412 0 0 Z " fill="#B1EFFA" transform="translate(497.1875,110.6875)"/>
<path d="M0 0 C8.7034368 5.18208163 13.03565283 11.79055223 16.2109375 21.31640625 C17.08276388 32.30713547 16.00993121 40.90391294 9.0234375 49.62890625 C3.51447542 55.49405122 -3.13346723 58.98579937 -11.14453125 59.5546875 C-22.47210554 59.77407987 -29.65825389 57.97480258 -38.06640625 50.1015625 C-44.44305889 43.49355738 -45.86374171 36.75065585 -46.1015625 27.87890625 C-45.86616672 17.66272938 -43.29241483 11.93197949 -36.20703125 4.48828125 C-26.5995526 -4.14137647 -11.55589225 -5.50920444 0 0 Z " fill="#B1EFFA" transform="translate(471.7890625,227.68359375)"/>
<path d="M0 0 C6.28666497 4.6530334 11.75443674 9.97245864 13.68359375 17.828125 C15.09172724 27.4938314 14.88129712 37.54882864 9.078125 45.69921875 C3.72377921 52.02288576 -1.14975945 55.38325315 -9 58 C-20.22256519 58.82978967 -29.24287095 58.00595369 -38.3125 50.875 C-43.68756016 45.84812188 -47.65254911 38.38015961 -48.23828125 30.99609375 C-48.46897842 19.9347715 -46.6944821 11.94978266 -39 3.7578125 C-28.63121404 -5.35537829 -11.79819148 -7.88859469 0 0 Z " fill="#B1EFFA" transform="translate(72,229)"/>
</svg>
